<?xml version="1.0" encoding="UTF-8" standalone="no"?>
<!-- Created with Inkscape (http://www.inkscape.org/) -->
<svg xmlns:dc="http://purl.org/dc/elements/1.1/" xmlns:cc="http://creativecommons.org/ns#" xmlns:rdf="http://www.w3.org/1999/02/22-rdf-syntax-ns#" xmlns:svg="http://www.w3.org/2000/svg" xmlns="http://www.w3.org/2000/svg" xmlns:xlink="http://www.w3.org/1999/xlink" xmlns:sodipodi="http://sodipodi.sourceforge.net/DTD/sodipodi-0.dtd" xmlns:inkscape="http://www.inkscape.org/namespaces/inkscape" width="894.76227" height="851.89941" id="svg3269" sodipodi:version="0.32" inkscape:version="0.46dev+devel" sodipodi:docbase="/home/mart/Documents/artwork" sodipodi:docname="hawk88_personal_information_2.svg" inkscape:output_extension="org.inkscape.output.svg.inkscape" version="1.0">
  <defs id="defs3271">
    <linearGradient id="linearGradient5105">
      <stop id="stop5107" offset="0" style="stop-color:#cbcbcb;stop-opacity:1;"/>
      <stop style="stop-color:#dddddd;stop-opacity:1;" offset="0.81" id="stop5113"/>
      <stop id="stop5109" offset="1" style="stop-color:#c5c5c5;stop-opacity:1;"/>
    </linearGradient>
    <filter inkscape:collect="always" id="filter3387">
      <feGaussianBlur inkscape:collect="always" stdDeviation="1.877244" id="feGaussianBlur3389"/>
    </filter>
    <linearGradient inkscape:collect="always" xlink:href="#linearGradient5105" id="linearGradient4298" gradientUnits="userSpaceOnUse" gradientTransform="matrix(1.8882685,0,0,13.235725,10.372529,188.86048)" spreadMethod="pad" x1="179.85097" y1="101.62583" x2="179.85097" y2="41.51614"/>
    <linearGradient inkscape:collect="always" xlink:href="#linearGradient5105" id="linearGradient4336" gradientUnits="userSpaceOnUse" gradientTransform="matrix(1.8882685,0,0,13.235725,10.372529,188.86048)" spreadMethod="pad" x1="179.85097" y1="101.62583" x2="179.85097" y2="41.51614"/>
    <linearGradient inkscape:collect="always" xlink:href="#linearGradient5105" id="linearGradient2210" gradientUnits="userSpaceOnUse" gradientTransform="matrix(1.8882685,0,0,13.235725,-36.788249,-479.85571)" spreadMethod="pad" x1="179.85097" y1="101.62583" x2="179.85097" y2="41.51614"/>
    <linearGradient inkscape:collect="always" xlink:href="#linearGradient5105" id="linearGradient2241" gradientUnits="userSpaceOnUse" gradientTransform="matrix(1.8882685,0,0,13.235725,-87.927825,-454.35022)" spreadMethod="pad" x1="179.85097" y1="101.62583" x2="179.85097" y2="41.51614"/>
    <linearGradient inkscape:collect="always" xlink:href="#linearGradient5105" id="linearGradient3513" gradientUnits="userSpaceOnUse" gradientTransform="matrix(1.8882685,0,0,13.235725,-87.927825,-454.35022)" spreadMethod="pad" x1="179.85097" y1="101.62583" x2="179.85097" y2="41.51614"/>
  </defs>
  <sodipodi:namedview id="base" pagecolor="#ffffff" bordercolor="#666666" borderopacity="1.0" gridtolerance="10000" guidetolerance="10" objecttolerance="10" inkscape:pageopacity="0.0" inkscape:pageshadow="2" inkscape:zoom="0.40204442" inkscape:cx="385.61703" inkscape:cy="411.27649" inkscape:document-units="px" inkscape:current-layer="layer1" inkscape:window-width="1280" inkscape:window-height="778" inkscape:window-x="0" inkscape:window-y="0" showgrid="false"/>
  <g inkscape:label="Layer 1" inkscape:groupmode="layer" id="layer1" transform="translate(51.139576,-25.505489)">
    <rect style="fill:#ffffff;fill-opacity:1;stroke:none;stroke-width:0.27599999;stroke-miterlimit:4;stroke-dasharray:none;stroke-opacity:1" id="rect7461" width="894.76227" height="851.89941" x="-51.139576" y="25.505489" ry="0" inkscape:export-xdpi="650" inkscape:export-ydpi="650" inkscape:export-filename="/home/mart/Desktop/lockcal.png"/>
    <rect inkscape:export-ydpi="90" inkscape:export-xdpi="90" inkscape:export-filename="/var/www/callorganizer/templates/BellenTell/img/tableheader2.png" y="214.25754" x="311.23401" height="63.118347" width="73.545013" id="rect7463" style="fill:#666666;fill-opacity:1;stroke:none;stroke-opacity:1;filter:url(#filter3387)" transform="matrix(11.054951,0,0,11.054951,-3445.9019,-2245.387)"/>
    <rect style="fill:url(#linearGradient3513);fill-opacity:1;stroke:none;stroke-opacity:1" id="rect7465" width="813.0365" height="751.34875" x="-5.2251625" y="69.640991" inkscape:export-filename="/var/www/callorganizer/templates/BellenTell/img/tableheader2.png" inkscape:export-xdpi="90" inkscape:export-ydpi="90"/>
    <rect rx="8.215416" style="fill:#e6e6e6;fill-opacity:1;stroke:none;stroke-width:0.27599999;stroke-miterlimit:4;stroke-dasharray:none;stroke-opacity:1" id="rect7467" width="731.73279" height="627.50525" x="35.426617" y="132.53864" ry="8.215416"/>
    <rect y="200.79419" x="225.5891" height="52.718269" width="484.65964" id="rect7491" style="opacity:0.47252748;fill:#cccccc;fill-opacity:1;stroke:none;stroke-width:1.30000019;stroke-miterlimit:4;stroke-dasharray:none;stroke-opacity:1"/>
    <rect style="opacity:0.47252748;fill:#b3b3b3;fill-opacity:1;stroke:none;stroke-width:1.30000019;stroke-miterlimit:4;stroke-dasharray:none;stroke-opacity:1" id="rect7530" width="484.65964" height="52.718269" x="226.89934" y="200.79419"/>
    <rect style="opacity:0.47252748;fill:#b3b3b3;fill-opacity:1;stroke:none;stroke-width:1.30000019;stroke-miterlimit:4;stroke-dasharray:none;stroke-opacity:1" id="rect7534" width="310.34482" height="52.718269" x="401.21417" y="276.66302"/>
    <rect y="364.59717" x="255.35664" height="52.718269" width="456.20233" id="rect7536" style="opacity:0.47252748;fill:#b3b3b3;fill-opacity:1;stroke:none;stroke-width:1.30000019;stroke-miterlimit:4;stroke-dasharray:none;stroke-opacity:1"/>
    <rect style="opacity:0.47252748;fill:#b3b3b3;fill-opacity:1;stroke:none;stroke-width:1.30000019;stroke-miterlimit:4;stroke-dasharray:none;stroke-opacity:1" id="rect7538" width="446.45035" height="52.718269" x="265.10861" y="452.53174"/>
    <rect y="540.46631" x="161.29866" height="52.718269" width="550.26031" id="rect7540" style="opacity:0.47252748;fill:#b3b3b3;fill-opacity:1;stroke:none;stroke-width:1.30000019;stroke-miterlimit:4;stroke-dasharray:none;stroke-opacity:1"/>
    <path style="font-size:44.21980286px;font-style:normal;font-weight:normal;fill:#000000;fill-opacity:1;stroke:none;stroke-width:1px;stroke-linecap:butt;stroke-linejoin:miter;stroke-opacity:1;font-family:Bitstream Vera Sans" d="M 68.299301,208.53971 L 74.172244,208.53971 L 88.46595,235.50775 L 88.46595,208.53971 L 92.697923,208.53971 L 92.697923,240.77612 L 86.824981,240.77612 L 72.531275,213.80809 L 72.531275,240.77612 L 68.299301,240.77612 L 68.299301,208.53971 z M 112.19523,228.62 C 108.98525,228.62001 106.76131,228.98707 105.52339,229.72117 C 104.28546,230.4553 103.6665,231.70762 103.66651,233.47813 C 103.6665,234.88879 104.13072,236.00796 105.05917,236.83564 C 105.9876,237.66332 107.25072,238.07716 108.84851,238.07716 C 111.05085,238.07716 112.81777,237.29626 114.14928,235.73446 C 115.48075,234.17267 116.14649,232.09627 116.14651,229.50526 L 116.14651,228.62 L 112.19523,228.62 z M 120.11938,226.97903 L 120.11938,240.77612 L 116.14651,240.77612 L 116.14651,237.10553 C 115.23964,238.57377 114.10967,239.65695 112.75661,240.35508 C 111.40352,241.05322 109.74815,241.40228 107.79052,241.40228 C 105.31466,241.40228 103.34622,240.70775 101.88519,239.31868 C 100.42415,237.92962 99.69363,236.06914 99.693632,233.73723 C 99.69363,231.01668 100.60408,228.96547 102.42498,227.58359 C 104.24588,226.20174 106.96283,225.51081 110.57585,225.51079 L 116.14651,225.51079 L 116.14651,225.12214 C 116.14649,223.29406 115.54552,221.87981 114.3436,220.87937 C 113.14165,219.87898 111.4539,219.37877 109.28035,219.37875 C 107.89847,219.37877 106.55259,219.54431 105.2427,219.87536 C 103.9328,220.20645 102.67328,220.70306 101.46415,221.36518 L 101.46415,217.6946 C 102.91799,217.13323 104.32864,216.7122 105.69613,216.43148 C 107.06359,216.15081 108.39508,216.01047 109.69059,216.01044 C 113.18843,216.01047 115.80102,216.91732 117.52838,218.731 C 119.25569,220.54472 120.11936,223.29406 120.11938,226.97903 L 120.11938,226.97903 z M 147.15219,221.23563 C 148.14539,219.45074 149.33293,218.13365 150.71482,217.28435 C 152.09666,216.4351 153.72324,216.01047 155.59455,216.01044 C 158.11355,216.01047 160.0568,216.89213 161.42431,218.65543 C 162.79174,220.41877 163.47548,222.927 163.47552,226.18013 L 163.47552,240.77612 L 159.48105,240.77612 L 159.48105,226.30968 C 159.48102,223.99219 159.07078,222.27205 158.25033,221.14927 C 157.42981,220.02652 156.17749,219.46514 154.49337,219.46511 C 152.43493,219.46514 150.80836,220.14887 149.61365,221.51633 C 148.41888,222.88382 147.82151,224.7479 147.82154,227.10858 L 147.82154,240.77612 L 143.82707,240.77612 L 143.82707,226.30968 C 143.82705,223.9778 143.41681,222.25406 142.59634,221.13847 C 141.77584,220.02292 140.50913,219.46514 138.79621,219.46511 C 136.76657,219.46514 135.15439,220.15247 133.95966,221.52712 C 132.76491,222.90181 132.16754,224.76229 132.16755,227.10858 L 132.16755,240.77612 L 128.17309,240.77612 L 128.17309,216.59342 L 132.16755,216.59342 L 132.16755,220.35037 C 133.0744,218.86777 134.16118,217.77379 135.4279,217.06844 C 136.6946,216.36313 138.19882,216.01047 139.94057,216.01044 C 141.69667,216.01047 143.1901,216.4567 144.42084,217.34913 C 145.65155,218.24161 146.562,219.53711 147.15219,221.23563 L 147.15219,221.23563 z M 192.10611,227.69155 L 192.10611,229.63481 L 173.83953,229.63481 C 174.01226,232.36976 174.83634,234.45336 176.31178,235.8856 C 177.7872,237.31786 179.84201,238.03398 182.47621,238.03398 C 184.00201,238.03398 185.48104,237.84685 186.91331,237.47259 C 188.34553,237.09834 189.76699,236.53696 191.17767,235.78844 L 191.17767,239.5454 C 189.75259,240.14996 188.29156,240.61059 186.79455,240.92726 C 185.29751,241.24394 183.77889,241.40228 182.2387,241.40228 C 178.38097,241.40228 175.32575,240.27951 173.07303,238.03398 C 170.82029,235.78845 169.69392,232.75122 169.69392,228.92228 C 169.69392,224.96382 170.76271,221.82223 172.90029,219.4975 C 175.03786,217.17282 177.92035,216.01047 181.54777,216.01044 C 184.8009,216.01047 187.37391,217.05766 189.2668,219.15203 C 191.15965,221.24645 192.10609,224.09295 192.10611,227.69155 L 192.10611,227.69155 z M 188.13324,226.5256 C 188.10443,224.35205 187.49626,222.61752 186.30874,221.322 C 185.12118,220.02652 183.54858,219.37877 181.59095,219.37875 C 179.37419,219.37877 177.60008,220.00493 176.2686,221.25723 C 174.9371,222.50956 174.1706,224.27288 173.96908,226.54719 L 188.13324,226.5256 z" id="text7542"/>
    <path style="font-size:44.21980286px;font-style:normal;font-weight:normal;fill:#000000;fill-opacity:1;stroke:none;stroke-width:1px;stroke-linecap:butt;stroke-linejoin:miter;stroke-opacity:1;font-family:Bitstream Vera Sans" d="M 89.048926,288.85491 L 89.048926,293.10847 C 87.39354,292.31681 85.831742,291.72663 84.363527,291.33796 C 82.895274,290.94933 81.47742,290.75501 80.109962,290.75498 C 77.734863,290.75501 75.903169,291.21563 74.614874,292.13685 C 73.326562,293.05812 72.68241,294.36802 72.682417,296.06654 C 72.68241,297.49161 73.110645,298.5676 73.967123,299.2945 C 74.823585,300.02144 76.446559,300.60801 78.836052,301.05422 L 81.470239,301.59401 C 84.723369,302.21299 87.123644,303.30337 88.671071,304.86516 C 90.218452,306.42697 90.992154,308.51776 90.992179,311.13754 C 90.992154,314.26115 89.944957,316.62904 87.850587,318.24121 C 85.756171,319.85339 82.686554,320.65948 78.641726,320.65948 C 77.115901,320.65948 75.492927,320.48675 73.772798,320.14128 C 72.052653,319.79582 70.271339,319.28481 68.428852,318.60827 L 68.428852,314.1172 C 70.199367,315.11042 71.933898,315.85893 73.632452,316.36274 C 75.330989,316.86655 77.000746,317.11845 78.641726,317.11845 C 81.131954,317.11845 83.053613,316.62904 84.406711,315.65021 C 85.75977,314.67139 86.436309,313.27513 86.43633,311.46142 C 86.436309,309.87804 85.950497,308.64012 84.978891,307.74765 C 84.007245,306.8552 82.41306,306.18586 80.196329,305.73962 L 77.54055,305.22142 C 74.287391,304.57368 71.933898,303.55887 70.480064,302.17699 C 69.026219,300.79514 68.299299,298.87348 68.299302,296.412 C 68.299299,293.56193 69.303312,291.31639 71.311344,289.67539 C 73.319364,288.03446 76.086698,287.21397 79.613353,287.21394 C 81.124756,287.21397 82.664963,287.35072 84.233977,287.62418 C 85.802953,287.89771 87.407935,288.30795 89.048926,288.85491 L 89.048926,288.85491 z M 118.30568,306.94875 L 118.30568,308.89201 L 100.0391,308.89201 C 100.21183,311.62696 101.03591,313.71056 102.51135,315.14281 C 103.98677,316.57506 106.04158,317.29118 108.67578,317.29118 C 110.20158,317.29118 111.68061,317.10405 113.11288,316.7298 C 114.5451,316.35554 115.96656,315.79416 117.37724,315.04564 L 117.37724,318.8026 C 115.95216,319.40717 114.49112,319.86779 112.99412,320.18447 C 111.49708,320.50114 109.97846,320.65948 108.43827,320.65948 C 104.58054,320.65948 101.52532,319.53672 99.272596,317.29118 C 97.019858,315.04565 95.893492,312.00842 95.893495,308.17948 C 95.893492,304.22102 96.96228,301.07943 99.099862,298.7547 C 101.23743,296.43002 104.11992,295.26767 107.74734,295.26764 C 111.00047,295.26767 113.57348,296.31487 115.46637,298.40924 C 117.35922,300.50365 118.30565,303.35015 118.30568,306.94875 L 118.30568,306.94875 z M 114.33281,305.7828 C 114.304,303.60925 113.69583,301.87472 112.50831,300.5792 C 111.32075,299.28372 109.74815,298.63597 107.79052,298.63595 C 105.57376,298.63597 103.79965,299.26213 102.46817,300.51443 C 101.13667,301.76676 100.37017,303.53009 100.16865,305.80439 L 114.33281,305.7828 z M 142.22928,296.77906 L 142.22928,300.49284 C 141.1065,299.87389 139.98013,299.40967 138.85018,299.10017 C 137.7202,298.79071 136.57944,298.63597 135.4279,298.63595 C 132.85128,298.63597 130.85045,299.45286 129.42541,301.08661 C 128.00035,302.7204 127.28782,305.01271 127.28783,307.96356 C 127.28782,310.91444 128.00035,313.20676 129.42541,314.84052 C 130.85045,316.4743 132.85128,317.29118 135.4279,317.29118 C 136.57944,317.29118 137.7202,317.13644 138.85018,316.82696 C 139.98013,316.51748 141.1065,316.05326 142.22928,315.43429 L 142.22928,319.10488 C 141.12089,319.62308 139.97293,320.01173 138.78541,320.27083 C 137.59785,320.52993 136.33473,320.65948 134.99607,320.65948 C 131.35425,320.65948 128.46097,319.51512 126.3162,317.2264 C 124.17142,314.93769 123.09904,311.85008 123.09904,307.96356 C 123.09904,304.0195 124.18222,300.91749 126.34859,298.65754 C 128.51495,296.39763 131.4838,295.26767 135.25517,295.26764 C 136.47868,295.26767 137.67342,295.39362 138.83939,295.6455 C 140.00532,295.89743 141.13528,296.27528 142.22928,296.77906 L 142.22928,296.77906 z M 158.55261,298.63595 C 156.42221,298.63597 154.73806,299.46725 153.50015,301.12979 C 152.26222,302.79237 151.64326,305.07029 151.64326,307.96356 C 151.64326,310.85686 152.25862,313.13478 153.48935,314.79734 C 154.72007,316.4599 156.40782,317.29118 158.55261,317.29118 C 160.66858,317.29118 162.34553,316.4563 163.58347,314.78654 C 164.82138,313.11679 165.44034,310.84247 165.44036,307.96356 C 165.44034,305.09908 164.82138,302.82836 163.58347,301.15138 C 162.34553,299.47445 160.66858,298.63597 158.55261,298.63595 L 158.55261,298.63595 z M 158.55261,295.26764 C 162.00726,295.26767 164.72062,296.39044 166.69268,298.63595 C 168.6647,300.88151 169.65072,303.99071 169.65074,307.96356 C 169.65072,311.92205 168.6647,315.02765 166.69268,317.28038 C 164.72062,319.53312 162.00726,320.65948 158.55261,320.65948 C 155.08353,320.65948 152.36658,319.53312 150.40174,317.28038 C 148.43689,315.02765 147.45447,311.92205 147.45447,307.96356 C 147.45447,303.99071 148.43689,300.88151 150.40174,298.63595 C 152.36658,296.39044 155.08353,295.26767 158.55261,295.26764 L 158.55261,295.26764 z M 196.3165,305.43734 L 196.3165,320.03333 L 192.34362,320.03333 L 192.34362,305.56689 C 192.3436,303.27818 191.89737,301.56524 191.00494,300.42806 C 190.11246,299.29092 188.77378,298.72234 186.98888,298.72232 C 184.84409,298.72234 183.15274,299.40607 181.91483,300.77353 C 180.6769,302.14102 180.05794,304.0051 180.05795,306.36578 L 180.05795,320.03333 L 176.06348,320.03333 L 176.06348,295.85062 L 180.05795,295.85062 L 180.05795,299.60758 C 181.00797,298.15376 182.12714,297.06698 183.41545,296.34723 C 184.70375,295.62753 186.18997,295.26767 187.87414,295.26764 C 190.65225,295.26767 192.75384,296.12774 194.17892,297.84785 C 195.60395,299.56801 196.31647,302.09784 196.3165,305.43734 L 196.3165,305.43734 z M 220.19691,299.52121 L 220.19691,286.43664 L 224.16979,286.43664 L 224.16979,320.03333 L 220.19691,320.03333 L 220.19691,316.40592 C 219.36201,317.84537 218.30762,318.91416 217.03373,319.61229 C 215.7598,320.31042 214.23039,320.65948 212.44549,320.65948 C 209.52341,320.65948 207.14472,319.49353 205.30943,317.16163 C 203.47414,314.82973 202.55649,311.76371 202.55649,307.96356 C 202.55649,304.16344 203.47414,301.09742 205.30943,298.7655 C 207.14472,296.43362 209.52341,295.26767 212.44549,295.26764 C 214.23039,295.26767 215.7598,295.61673 217.03373,296.31484 C 218.30762,297.013 219.36201,298.08178 220.19691,299.52121 L 220.19691,299.52121 z M 206.65892,307.96356 C 206.65891,310.88565 207.25988,313.17797 208.46182,314.84052 C 209.66375,316.50309 211.31551,317.33437 213.41712,317.33436 C 215.51869,317.33437 217.17406,316.50309 218.38321,314.84052 C 219.59233,313.17797 220.19689,310.88565 220.19691,307.96356 C 220.19689,305.0415 219.59233,302.74919 218.38321,301.08661 C 217.17406,299.42407 215.51869,298.59279 213.41712,298.59277 C 211.31551,298.59279 209.66375,299.42407 208.46182,301.08661 C 207.25988,302.74919 206.65891,305.0415 206.65892,307.96356 L 206.65892,307.96356 z M 266.53271,305.43734 L 266.53271,320.03333 L 262.55983,320.03333 L 262.55983,305.56689 C 262.55981,303.27818 262.11358,301.56524 261.22115,300.42806 C 260.32867,299.29092 258.98999,298.72234 257.20509,298.72232 C 255.0603,298.72234 253.36895,299.40607 252.13104,300.77353 C 250.89311,302.14102 250.27415,304.0051 250.27415,306.36578 L 250.27415,320.03333 L 246.27969,320.03333 L 246.27969,295.85062 L 250.27415,295.85062 L 250.27415,299.60758 C 251.22418,298.15376 252.34335,297.06698 253.63166,296.34723 C 254.91996,295.62753 256.40618,295.26767 258.09035,295.26764 C 260.86846,295.26767 262.97005,296.12774 264.39513,297.84785 C 265.82016,299.56801 266.53268,302.09784 266.53271,305.43734 L 266.53271,305.43734 z M 285.49022,307.8772 C 282.28024,307.87721 280.0563,308.24427 278.81839,308.97837 C 277.58045,309.7125 276.96149,310.96482 276.9615,312.73533 C 276.96149,314.14599 277.42571,315.26516 278.35416,316.09284 C 279.2826,316.92052 280.54571,317.33437 282.14351,317.33436 C 284.34585,317.33437 286.11277,316.55347 287.44427,314.99166 C 288.77574,313.42987 289.44148,311.35347 289.4415,308.76246 L 289.4415,307.8772 L 285.49022,307.8772 z M 293.41438,306.23623 L 293.41438,320.03333 L 289.4415,320.03333 L 289.4415,316.36274 C 288.53463,317.83097 287.40467,318.91416 286.05161,319.61229 C 284.69851,320.31042 283.04315,320.65948 281.08551,320.65948 C 278.60966,320.65948 276.64122,319.96495 275.18018,318.57589 C 273.71914,317.18682 272.98862,315.32634 272.98863,312.99443 C 272.98862,310.27389 273.89907,308.22268 275.71998,306.8408 C 277.54087,305.45894 280.25782,304.76801 283.87084,304.76799 L 289.4415,304.76799 L 289.4415,304.37934 C 289.44148,302.55126 288.84052,301.13701 287.6386,300.13657 C 286.43664,299.13618 284.74889,298.63597 282.57534,298.63595 C 281.19346,298.63597 279.84758,298.80151 278.53769,299.13256 C 277.22779,299.46365 275.96828,299.96026 274.75915,300.62239 L 274.75915,296.9518 C 276.21298,296.39044 277.62364,295.9694 278.99112,295.68868 C 280.35858,295.40802 281.69007,295.26767 282.98558,295.26764 C 286.48342,295.26767 289.09602,296.17452 290.82337,297.9882 C 292.55069,299.80192 293.41435,302.55126 293.41438,306.23623 L 293.41438,306.23623 z M 320.44718,300.49284 C 321.44037,298.70794 322.62792,297.39085 324.00981,296.54155 C 325.39165,295.69231 327.01822,295.26767 328.88953,295.26764 C 331.40853,295.26767 333.35178,296.14933 334.71929,297.91263 C 336.08673,299.67597 336.77047,302.1842 336.77051,305.43734 L 336.77051,320.03333 L 332.77604,320.03333 L 332.77604,305.56689 C 332.77601,303.24939 332.36576,301.52926 331.54531,300.40647 C 330.7248,299.28372 329.47248,298.72234 327.78836,298.72232 C 325.72992,298.72234 324.10335,299.40607 322.90863,300.77353 C 321.71387,302.14102 321.1165,304.0051 321.11652,306.36578 L 321.11652,320.03333 L 317.12206,320.03333 L 317.12206,305.56689 C 317.12204,303.235 316.7118,301.51126 315.89133,300.39567 C 315.07083,299.28012 313.80412,298.72234 312.09119,298.72232 C 310.06156,298.72234 308.44938,299.40967 307.25465,300.78432 C 306.0599,302.15901 305.46253,304.0195 305.46254,306.36578 L 305.46254,320.03333 L 301.46808,320.03333 L 301.46808,295.85062 L 305.46254,295.85062 L 305.46254,299.60758 C 306.36938,298.12497 307.45616,297.03099 308.72289,296.32564 C 309.98959,295.62033 311.49381,295.26767 313.23555,295.26764 C 314.99166,295.26767 316.48508,295.7139 317.71583,296.60633 C 318.94654,297.49881 319.85698,298.79431 320.44718,300.49284 L 320.44718,300.49284 z M 365.40111,306.94875 L 365.40111,308.89201 L 347.13453,308.89201 C 347.30726,311.62696 348.13134,313.71056 349.60678,315.14281 C 351.08221,316.57506 353.13701,317.29118 355.77121,317.29118 C 357.29701,317.29118 358.77604,317.10405 360.20831,316.7298 C 361.64054,316.35554 363.06199,315.79416 364.47267,315.04564 L 364.47267,318.8026 C 363.04759,319.40717 361.58656,319.86779 360.08955,320.18447 C 358.59251,320.50114 357.0739,320.65948 355.5337,320.65948 C 351.67598,320.65948 348.62075,319.53672 346.36803,317.29118 C 344.11529,315.04565 342.98892,312.00842 342.98893,308.17948 C 342.98892,304.22102 344.05771,301.07943 346.19529,298.7547 C 348.33286,296.43002 351.21535,295.26767 354.84277,295.26764 C 358.0959,295.26767 360.66891,296.31487 362.5618,298.40924 C 364.45465,300.50365 365.40109,303.35015 365.40111,306.94875 L 365.40111,306.94875 z M 361.42824,305.7828 C 361.39943,303.60925 360.79126,301.87472 359.60374,300.5792 C 358.41618,299.28372 356.84359,298.63597 354.88595,298.63595 C 352.66919,298.63597 350.89508,299.26213 349.5636,300.51443 C 348.2321,301.76676 347.4656,303.53009 347.26408,305.80439 L 361.42824,305.7828 z" id="text7546"/>
    <path style="font-size:44.21980286px;font-style:normal;font-weight:normal;fill:#000000;fill-opacity:1;stroke:none;stroke-width:1px;stroke-linecap:butt;stroke-linejoin:miter;stroke-opacity:1;font-family:Bitstream Vera Sans" d="M 68.299301,374.13066 L 72.660825,374.13066 L 72.660825,406.36707 L 68.299301,406.36707 L 68.299301,374.13066 z M 101.26983,391.77108 L 101.26983,406.36707 L 97.296956,406.36707 L 97.296956,391.90063 C 97.296935,389.61192 96.850707,387.89898 95.95827,386.7618 C 95.065795,385.62466 93.727111,385.05608 91.942214,385.05606 C 89.797426,385.05608 88.106077,385.73981 86.868164,387.10727 C 85.630232,388.47476 85.01127,390.33884 85.011278,392.69952 L 85.011278,406.36707 L 81.016814,406.36707 L 81.016814,382.18436 L 85.011278,382.18436 L 85.011278,385.94132 C 85.961304,384.4875 87.080473,383.40072 88.368788,382.68097 C 89.65708,381.96127 91.143307,381.60141 92.827474,381.60138 C 95.605587,381.60141 97.707177,382.46148 99.13225,384.18159 C 100.55728,385.90175 101.2698,388.43158 101.26983,391.77108 L 101.26983,391.77108 z M 109.23716,382.18436 L 113.21004,382.18436 L 113.21004,406.36707 L 109.23716,406.36707 L 109.23716,382.18436 z M 109.23716,372.77038 L 113.21004,372.77038 L 113.21004,377.80125 L 109.23716,377.80125 L 109.23716,372.77038 z M 125.43094,375.3182 L 125.43094,382.18436 L 133.6142,382.18436 L 133.6142,385.27197 L 125.43094,385.27197 L 125.43094,398.39973 C 125.43093,400.37178 125.70083,401.63849 126.24063,402.19987 C 126.78041,402.76126 127.87799,403.04195 129.53336,403.04194 L 133.6142,403.04194 L 133.6142,406.36707 L 129.53336,406.36707 C 126.46733,406.36707 124.35135,405.79489 123.1854,404.65053 C 122.01945,403.50617 121.43647,401.42257 121.43648,398.39973 L 121.43648,385.27197 L 118.5216,385.27197 L 118.5216,382.18436 L 121.43648,382.18436 L 121.43648,375.3182 L 125.43094,375.3182 z M 138.86098,382.18436 L 142.83385,382.18436 L 142.83385,406.36707 L 138.86098,406.36707 L 138.86098,382.18436 z M 138.86098,372.77038 L 142.83385,372.77038 L 142.83385,377.80125 L 138.86098,377.80125 L 138.86098,372.77038 z M 162.11524,394.21094 C 158.90526,394.21095 156.68132,394.57801 155.44341,395.31211 C 154.20547,396.04624 153.58651,397.29856 153.58652,399.06907 C 153.58651,400.47973 154.05073,401.5989 154.97918,402.42658 C 155.90762,403.25427 157.17073,403.66811 158.76853,403.6681 C 160.97087,403.66811 162.73779,402.88721 164.06929,401.3254 C 165.40076,399.76361 166.0665,397.68721 166.06652,395.0962 L 166.06652,394.21094 L 162.11524,394.21094 z M 170.03939,392.56997 L 170.03939,406.36707 L 166.06652,406.36707 L 166.06652,402.69648 C 165.15965,404.16471 164.02969,405.2479 162.67662,405.94603 C 161.32353,406.64416 159.66817,406.99322 157.71053,406.99322 C 155.23468,406.99322 153.26624,406.29869 151.8052,404.90963 C 150.34416,403.52056 149.61364,401.66008 149.61365,399.32817 C 149.61364,396.60763 150.52409,394.55642 152.345,393.17454 C 154.16589,391.79268 156.88284,391.10175 160.49586,391.10173 L 166.06652,391.10173 L 166.06652,390.71308 C 166.0665,388.885 165.46553,387.47075 164.26361,386.47031 C 163.06166,385.46992 161.37391,384.96971 159.20036,384.96969 C 157.81848,384.96971 156.4726,385.13525 155.16271,385.4663 C 153.85281,385.79739 152.59329,386.294 151.38417,386.95613 L 151.38417,383.28554 C 152.838,382.72418 154.24866,382.30314 155.61614,382.02242 C 156.9836,381.74176 158.31509,381.60141 159.6106,381.60138 C 163.10844,381.60141 165.72104,382.50826 167.44839,384.32194 C 169.1757,386.13566 170.03937,388.885 170.03939,392.56997 L 170.03939,392.56997 z M 178.24424,372.77038 L 182.21712,372.77038 L 182.21712,406.36707 L 178.24424,406.36707 L 178.24424,372.77038 z M 205.9248,382.89689 L 205.9248,386.65384 C 204.80201,386.07808 203.63606,385.64625 202.42695,385.35834 C 201.2178,385.07047 199.96548,384.92653 198.66999,384.92651 C 196.69794,384.92653 195.21891,385.22881 194.2329,385.83336 C 193.24687,386.43795 192.75386,387.3448 192.75386,388.55391 C 192.75386,389.47518 193.10652,390.1985 193.81186,390.72388 C 194.51718,391.24929 195.93503,391.7495 198.06542,392.2245 L 199.4257,392.52679 C 202.247,393.13137 204.25143,393.98424 205.43899,395.0854 C 206.62651,396.18659 207.22028,397.7232 207.2203,399.69523 C 207.22028,401.94077 206.33143,403.71849 204.55373,405.02838 C 202.776,406.33828 200.33254,406.99322 197.22335,406.99322 C 195.92783,406.99322 194.57835,406.86727 193.1749,406.61537 C 191.77144,406.36347 190.29241,405.98561 188.73781,405.48181 L 188.73781,401.37938 C 190.20604,402.14229 191.65268,402.71447 193.07774,403.09592 C 194.50278,403.47738 195.91344,403.66811 197.30971,403.6681 C 199.18098,403.66811 200.62043,403.34783 201.62805,402.70727 C 202.63565,402.06672 203.13946,401.16347 203.13947,399.99751 C 203.13946,398.91794 202.776,398.09026 202.04909,397.51447 C 201.32216,396.9387 199.72797,396.38451 197.26653,395.85191 L 195.88466,395.52803 C 193.4232,395.00984 191.64549,394.21455 190.55151,393.14215 C 189.45753,392.06978 188.91054,390.59794 188.91054,388.72665 C 188.91054,386.45234 189.71663,384.69622 191.32881,383.45827 C 192.94099,382.22037 195.2297,381.60141 198.19497,381.60138 C 199.6632,381.60141 201.04506,381.70937 202.34058,381.92526 C 203.63606,382.1412 204.8308,382.46508 205.9248,382.89689 L 205.9248,382.89689 z" id="text7554"/>
    <path style="font-size:44.21980286px;font-style:normal;font-variant:normal;font-weight:normal;font-stretch:normal;text-align:start;line-height:125%;writing-mode:lr-tb;text-anchor:start;fill:#000000;fill-opacity:1;stroke:none;stroke-width:1px;stroke-linecap:butt;stroke-linejoin:miter;stroke-opacity:1;font-family:Bitstream Vera Sans" d="M 83.068033,466.73063 L 77.151907,482.77326 L 89.00575,482.77326 L 83.068033,466.73063 z M 80.606579,462.43388 L 85.551078,462.43388 L 97.836756,494.67029 L 93.302499,494.67029 L 90.366027,486.40067 L 75.834813,486.40067 L 72.898342,494.67029 L 68.299309,494.67029 L 80.606579,462.43388 z M 118.2625,474.15817 L 118.2625,461.0736 L 122.23538,461.0736 L 122.23538,494.67029 L 118.2625,494.67029 L 118.2625,491.04288 C 117.42761,492.48233 116.37321,493.55112 115.09932,494.24925 C 113.82539,494.94738 112.29598,495.29645 110.51108,495.29645 C 107.589,495.29645 105.21031,494.1305 103.37503,491.79859 C 101.53973,489.46669 100.62208,486.40068 100.62208,482.60053 C 100.62208,478.8004 101.53973,475.73439 103.37503,473.40246 C 105.21031,471.07058 107.589,469.90463 110.51108,469.90461 C 112.29598,469.90463 113.82539,470.2537 115.09932,470.9518 C 116.37321,471.64996 117.42761,472.71875 118.2625,474.15817 L 118.2625,474.15817 z M 104.72451,482.60053 C 104.7245,485.52261 105.32547,487.81493 106.52741,489.47748 C 107.72934,491.14005 109.38111,491.97133 111.48271,491.97133 C 113.58429,491.97133 115.23965,491.14005 116.4488,489.47748 C 117.65792,487.81493 118.26248,485.52261 118.2625,482.60053 C 118.26248,479.67847 117.65792,477.38615 116.4488,475.72357 C 115.23965,474.06103 113.58429,473.22975 111.48271,473.22973 C 109.38111,473.22975 107.72934,474.06103 106.52741,475.72357 C 105.32547,477.38615 104.7245,479.67847 104.72451,482.60053 L 104.72451,482.60053 z M 146.33172,474.15817 L 146.33172,461.0736 L 150.30459,461.0736 L 150.30459,494.67029 L 146.33172,494.67029 L 146.33172,491.04288 C 145.49682,492.48233 144.44242,493.55112 143.16853,494.24925 C 141.89461,494.94738 140.3652,495.29645 138.5803,495.29645 C 135.65821,495.29645 133.27953,494.1305 131.44424,491.79859 C 129.60894,489.46669 128.69129,486.40068 128.6913,482.60053 C 128.69129,478.8004 129.60894,475.73439 131.44424,473.40246 C 133.27953,471.07058 135.65821,469.90463 138.5803,469.90461 C 140.3652,469.90463 141.89461,470.2537 143.16853,470.9518 C 144.44242,471.64996 145.49682,472.71875 146.33172,474.15817 L 146.33172,474.15817 z M 132.79372,482.60053 C 132.79371,485.52261 133.39468,487.81493 134.59663,489.47748 C 135.79856,491.14005 137.45032,491.97133 139.55192,491.97133 C 141.6535,491.97133 143.30886,491.14005 144.51801,489.47748 C 145.72713,487.81493 146.3317,485.52261 146.33172,482.60053 C 146.3317,479.67847 145.72713,477.38615 144.51801,475.72357 C 143.30886,474.06103 141.6535,473.22975 139.55192,473.22973 C 137.45032,473.22975 135.79856,474.06103 134.59663,475.72357 C 133.39468,477.38615 132.79371,479.67847 132.79372,482.60053 L 132.79372,482.60053 z M 172.50085,474.20136 C 172.05461,473.94228 171.56879,473.75155 171.04341,473.62918 C 170.518,473.50684 169.93862,473.44567 169.30528,473.44565 C 167.05973,473.44567 165.336,474.17619 164.13407,475.6372 C 162.93212,477.09826 162.33115,479.19625 162.33116,481.93118 L 162.33116,494.67029 L 158.3367,494.67029 L 158.3367,470.48758 L 162.33116,470.48758 L 162.33116,474.24454 C 163.16603,472.77633 164.25281,471.68595 165.59151,470.9734 C 166.93018,470.26089 168.55675,469.90463 170.47123,469.90461 C 170.74471,469.90463 171.04699,469.92263 171.37808,469.95859 C 171.70914,469.9946 172.0762,470.04858 172.47926,470.12052 L 172.50085,474.20136 z M 197.39608,481.58572 L 197.39608,483.52897 L 179.12951,483.52897 C 179.30223,486.26393 180.12631,488.34752 181.60176,489.77977 C 183.07718,491.21202 185.13199,491.92814 187.76619,491.92814 C 189.29198,491.92814 190.77101,491.74102 192.20328,491.36676 C 193.63551,490.99251 195.05696,490.43112 196.46764,489.68261 L 196.46764,493.43956 C 195.04257,494.04413 193.58153,494.50475 192.08453,494.82143 C 190.58748,495.13811 189.06887,495.29645 187.52868,495.29645 C 183.67095,495.29645 180.61573,494.17368 178.363,491.92814 C 176.11026,489.68261 174.9839,486.64538 174.9839,482.81644 C 174.9839,478.85798 176.05268,475.71639 178.19027,473.39167 C 180.32784,471.06698 183.21033,469.90463 186.83774,469.90461 C 190.09087,469.90463 192.66388,470.95183 194.55678,473.0462 C 196.44962,475.14061 197.39606,477.98712 197.39608,481.58572 L 197.39608,481.58572 z M 193.42321,480.41977 C 193.3944,478.24622 192.78624,476.51169 191.59871,475.21617 C 190.41115,473.92068 188.83856,473.27293 186.88093,473.27291 C 184.66417,473.27293 182.89005,473.89909 181.55857,475.15139 C 180.22708,476.40373 179.46057,478.16705 179.25906,480.44136 L 193.42321,480.41977 z M 219.33326,471.20011 L 219.33326,474.95707 C 218.21047,474.38131 217.04452,473.94947 215.8354,473.66156 C 214.62625,473.3737 213.37394,473.22975 212.07845,473.22973 C 210.1064,473.22975 208.62737,473.53203 207.64135,474.13658 C 206.65533,474.74117 206.16232,475.64802 206.16232,476.85714 C 206.16232,477.7784 206.51498,478.50172 207.22032,479.0271 C 207.92564,479.55251 209.34349,480.05272 211.47388,480.52772 L 212.83416,480.83001 C 215.65546,481.43459 217.65989,482.28746 218.84745,483.38862 C 220.03497,484.48981 220.62874,486.02642 220.62876,487.99845 C 220.62874,490.24399 219.73988,492.02171 217.96219,493.3316 C 216.18445,494.6415 213.741,495.29645 210.63181,495.29645 C 209.33629,495.29645 207.98681,495.1705 206.58336,494.91859 C 205.1799,494.66669 203.70087,494.28884 202.14627,493.78503 L 202.14627,489.68261 C 203.6145,490.44552 205.06114,491.0177 206.4862,491.39915 C 207.91124,491.7806 209.3219,491.97133 210.71817,491.97133 C 212.58944,491.97133 214.02889,491.65105 215.03651,491.01049 C 216.04411,490.36995 216.54791,489.46669 216.54793,488.30074 C 216.54791,487.22116 216.18445,486.39348 215.45755,485.81769 C 214.73061,485.24192 213.13643,484.68774 210.67499,484.15513 L 209.29312,483.83125 C 206.83166,483.31306 205.05394,482.51777 203.95997,481.44537 C 202.86599,480.373 202.319,478.90117 202.319,477.02987 C 202.319,474.75556 203.12509,472.99944 204.73727,471.76149 C 206.34944,470.52359 208.63816,469.90463 211.60343,469.90461 C 213.07165,469.90463 214.45352,470.01259 215.74904,470.22848 C 217.04452,470.44442 218.23926,470.7683 219.33326,471.20011 L 219.33326,471.20011 z M 242.3932,471.20011 L 242.3932,474.95707 C 241.27041,474.38131 240.10446,473.94947 238.89534,473.66156 C 237.68619,473.3737 236.43387,473.22975 235.13839,473.22973 C 233.16633,473.22975 231.6873,473.53203 230.70129,474.13658 C 229.71526,474.74117 229.22225,475.64802 229.22226,476.85714 C 229.22225,477.7784 229.57492,478.50172 230.28025,479.0271 C 230.98557,479.55251 232.40343,480.05272 234.53382,480.52772 L 235.8941,480.83001 C 238.71539,481.43459 240.71982,482.28746 241.90738,483.38862 C 243.09491,484.48981 243.68868,486.02642 243.6887,487.99845 C 243.68868,490.24399 242.79982,492.02171 241.02212,493.3316 C 239.24439,494.6415 236.80093,495.29645 233.69174,495.29645 C 232.39623,495.29645 231.04675,495.1705 229.6433,494.91859 C 228.23983,494.66669 226.7608,494.28884 225.2062,493.78503 L 225.2062,489.68261 C 226.67444,490.44552 228.12108,491.0177 229.54614,491.39915 C 230.97118,491.7806 232.38184,491.97133 233.77811,491.97133 C 235.64938,491.97133 237.08882,491.65105 238.09645,491.01049 C 239.10404,490.36995 239.60785,489.46669 239.60787,488.30074 C 239.60785,487.22116 239.24439,486.39348 238.51749,485.81769 C 237.79055,485.24192 236.19637,484.68774 233.73493,484.15513 L 232.35306,483.83125 C 229.8916,483.31306 228.11388,482.51777 227.01991,481.44537 C 225.92592,480.373 225.37893,478.90117 225.37894,477.02987 C 225.37893,474.75556 226.18502,472.99944 227.79721,471.76149 C 229.40938,470.52359 231.6981,469.90463 234.66337,469.90461 C 236.13159,469.90463 237.51346,470.01259 238.80897,470.22848 C 240.10446,470.44442 241.2992,470.7683 242.3932,471.20011 L 242.3932,471.20011 z" id="text7558"/>
    <path style="font-size:44.21980286px;font-style:normal;font-variant:normal;font-weight:normal;font-stretch:normal;text-align:start;line-height:125%;writing-mode:lr-tb;text-anchor:start;fill:#000000;fill-opacity:1;stroke:none;stroke-width:1px;stroke-linecap:butt;stroke-linejoin:miter;stroke-opacity:1;font-family:Bitstream Vera Sans" d="M 68.299306,550.73759 L 95.569624,550.73759 L 95.569624,554.40818 L 84.126022,554.40818 L 84.126022,582.974 L 79.742907,582.974 L 79.742907,554.40818 L 68.299306,554.40818 L 68.299306,550.73759 z M 120.31371,569.88943 L 120.31371,571.83268 L 102.04713,571.83268 C 102.21986,574.56764 103.04394,576.65124 104.51938,578.08348 C 105.9948,579.51573 108.04961,580.23186 110.68381,580.23185 C 112.20961,580.23186 113.68864,580.04473 115.12091,579.67047 C 116.55314,579.29622 117.97459,578.73483 119.38527,577.98632 L 119.38527,581.74327 C 117.96019,582.34784 116.49916,582.80846 115.00215,583.12514 C 113.50511,583.44182 111.9865,583.60016 110.4463,583.60016 C 106.58858,583.60016 103.53335,582.47739 101.28063,580.23185 C 99.02789,577.98632 97.901524,574.94909 97.901526,571.12016 C 97.901524,567.16169 98.970312,564.0201 101.10789,561.69538 C 103.24546,559.3707 106.12795,558.20834 109.75537,558.20832 C 113.0085,558.20834 115.58151,559.25554 117.4744,561.34991 C 119.36725,563.44433 120.31369,566.29083 120.31371,569.88943 L 120.31371,569.88943 z M 116.34084,568.72348 C 116.31203,566.54993 115.70386,564.8154 114.51634,563.51988 C 113.32878,562.2244 111.75618,561.57665 109.79855,561.57662 C 107.58179,561.57665 105.80768,562.2028 104.4762,563.4551 C 103.1447,564.70744 102.3782,566.47076 102.17668,568.74507 L 116.34084,568.72348 z M 126.8344,549.37731 L 130.80728,549.37731 L 130.80728,582.974 L 126.8344,582.974 L 126.8344,549.37731 z" id="text7562"/>
    <rect style="opacity:0.47252748;fill:#b3b3b3;fill-opacity:1;stroke:none;stroke-width:1.30000019;stroke-miterlimit:4;stroke-dasharray:none;stroke-opacity:1" id="rect4302" width="456.20233" height="52.718269" x="255.35664" y="639.83398"/>
    <path style="font-size:44.21980286px;font-style:normal;font-weight:normal;fill:#000000;fill-opacity:1;stroke:none;stroke-width:1px;stroke-linecap:butt;stroke-linejoin:miter;stroke-opacity:1;font-family:Bitstream Vera Sans" d="M 68.299301,649.36747 L 88.681867,649.36747 L 88.681867,653.03806 L 72.660825,653.03806 L 72.660825,662.58159 L 88.012524,662.58159 L 88.012524,666.25218 L 72.660825,666.25218 L 72.660825,677.93329 L 89.070517,677.93329 L 89.070517,681.60388 L 68.299301,681.60388 L 68.299301,649.36747 z M 114.93737,662.06339 C 115.93057,660.2785 117.11811,658.96141 118.5,658.11211 C 119.88185,657.26286 121.50842,656.83823 123.37973,656.8382 C 125.89873,656.83823 127.84198,657.71989 129.20949,659.48318 C 130.57692,661.24653 131.26066,663.75476 131.2607,667.00789 L 131.2607,681.60388 L 127.26624,681.60388 L 127.26624,667.13744 C 127.2662,664.81995 126.85596,663.09981 126.03551,661.97703 C 125.21499,660.85428 123.96267,660.29289 122.27855,660.29287 C 120.22012,660.29289 118.59354,660.97663 117.39883,662.34408 C 116.20406,663.71158 115.60669,665.57566 115.60672,667.93634 L 115.60672,681.60388 L 111.61225,681.60388 L 111.61225,667.13744 C 111.61223,664.80556 111.20199,663.08182 110.38153,661.96623 C 109.56102,660.85068 108.29431,660.29289 106.58139,660.29287 C 104.55175,660.29289 102.93957,660.98023 101.74485,662.35488 C 100.5501,663.72957 99.952726,665.59005 99.952734,667.93634 L 99.952734,681.60388 L 95.958269,681.60388 L 95.958269,657.42118 L 99.952734,657.42118 L 99.952734,661.17813 C 100.85958,659.69552 101.94636,658.60155 103.21308,657.89619 C 104.47978,657.19089 105.984,656.83823 107.72575,656.8382 C 109.48185,656.83823 110.97528,657.28445 112.20602,658.17689 C 113.43673,659.06937 114.34718,660.36487 114.93737,662.06339 L 114.93737,662.06339 z M 150.19662,669.44775 C 146.98665,669.44777 144.7627,669.81483 143.52479,670.54893 C 142.28686,671.28306 141.66789,672.53538 141.6679,674.30589 C 141.66789,675.71655 142.13212,676.83572 143.06057,677.6634 C 143.989,678.49108 145.25211,678.90492 146.84991,678.90492 C 149.05225,678.90492 150.81917,678.12402 152.15067,676.56222 C 153.48214,675.00043 154.14789,672.92403 154.1479,670.33301 L 154.1479,669.44775 L 150.19662,669.44775 z M 158.12078,667.80679 L 158.12078,681.60388 L 154.1479,681.60388 L 154.1479,677.93329 C 153.24103,679.40153 152.11107,680.48471 150.75801,681.18284 C 149.40491,681.88098 147.74955,682.23004 145.79192,682.23004 C 143.31606,682.23004 141.34762,681.53551 139.88659,680.14644 C 138.42554,678.75738 137.69503,676.8969 137.69503,674.56499 C 137.69503,671.84444 138.60548,669.79323 140.42638,668.41135 C 142.24727,667.0295 144.96422,666.33856 148.57725,666.33855 L 154.1479,666.33855 L 154.1479,665.9499 C 154.14789,664.12182 153.54692,662.70756 152.345,661.70713 C 151.14304,660.70674 149.45529,660.20653 147.28174,660.20651 C 145.89986,660.20653 144.55398,660.37206 143.2441,660.70312 C 141.93419,661.03421 140.67468,661.53082 139.46555,662.19294 L 139.46555,658.52235 C 140.91938,657.96099 142.33004,657.53996 143.69752,657.25924 C 145.06499,656.97857 146.39647,656.83823 147.69199,656.8382 C 151.18983,656.83823 153.80242,657.74508 155.52977,659.55876 C 157.25709,661.37248 158.12075,664.12182 158.12078,667.80679 L 158.12078,667.80679 z M 166.32562,657.42118 L 170.29849,657.42118 L 170.29849,681.60388 L 166.32562,681.60388 L 166.32562,657.42118 z M 166.32562,648.0072 L 170.29849,648.0072 L 170.29849,653.03806 L 166.32562,653.03806 L 166.32562,648.0072 z M 178.58971,648.0072 L 182.56258,648.0072 L 182.56258,681.60388 L 178.58971,681.60388 L 178.58971,648.0072 z" id="text4304"/>
  </g>
  <metadata>
    <rdf:RDF>
      <cc:Work>
        <dc:format>image/svg+xml</dc:format>
        <dc:type rdf:resource="http://purl.org/dc/dcmitype/StillImage"/>
        <cc:license rdf:resource="http://creativecommons.org/licenses/publicdomain/"/>
        <dc:publisher>
          <cc:Agent rdf:about="http://openclipart.org/">
            <dc:title>Open Clip Art Library</dc:title>
          </cc:Agent>
        </dc:publisher>
        <dc:title>personal information</dc:title>
        <dc:date>2007-11-19T11:56:27</dc:date>
        <dc:description/>
        <dc:source>http://openclipart.org/detail/10762/personal-information-by-hawk88</dc:source>
        <dc:creator>
          <cc:Agent>
            <dc:title>hawk88</dc:title>
          </cc:Agent>
        </dc:creator>
        <dc:subject>
          <rdf:Bag>
            <rdf:li>clip art</rdf:li>
            <rdf:li>clipart</rdf:li>
            <rdf:li>form</rdf:li>
            <rdf:li>form</rdf:li>
            <rdf:li>image</rdf:li>
            <rdf:li>media</rdf:li>
            <rdf:li>personal information</rdf:li>
            <rdf:li>personal information</rdf:li>
            <rdf:li>png</rdf:li>
            <rdf:li>public domain</rdf:li>
            <rdf:li>settings</rdf:li>
            <rdf:li>settings</rdf:li>
            <rdf:li>svg</rdf:li>
          </rdf:Bag>
        </dc:subject>
      </cc:Work>
      <cc:License rdf:about="http://creativecommons.org/licenses/publicdomain/">
        <cc:permits rdf:resource="http://creativecommons.org/ns#Reproduction"/>
        <cc:permits rdf:resource="http://creativecommons.org/ns#Distribution"/>
        <cc:permits rdf:resource="http://creativecommons.org/ns#DerivativeWorks"/>
      </cc:License>
    </rdf:RDF>
  </metadata>
</svg>
