<?xml version="1.0" encoding="UTF-8"?>
<!DOCTYPE svg PUBLIC "-//W3C//DTD SVG 1.1//EN" "http://www.w3.org/Graphics/SVG/1.1/DTD/svg11.dtd">
<svg xmlns="http://www.w3.org/2000/svg" xmlns:xlink="http://www.w3.org/1999/xlink" xmlns:svg="http://www.w3.org/2000/svg" xmlns:dc="http://purl.org/dc/elements/1.1/" xmlns:cc="http://web.resource.org/cc/" xmlns:rdf="http://www.w3.org/1999/02/22-rdf-syntax-ns#" width="940px" height="497px" viewBox="0 0 940 497" version="1.1">
  <g>
    <text x="109" y="436" font-family="Times New Roman" font-size="21" font-weight="700" fill="#000000">-3</text>
    <text x="226" y="436" font-family="Times New Roman" font-size="21" font-weight="700" fill="#000000">-2</text>
    <text x="344" y="436" font-family="Times New Roman" font-size="21" font-weight="700" fill="#000000">-1</text>
    <text x="583" y="436" font-family="Times New Roman" font-size="21" font-weight="700" fill="#000000">1</text>
    <text x="700" y="436" font-family="Times New Roman" font-size="21" font-weight="700" fill="#000000">2</text>
    <text x="818" y="436" font-family="Times New Roman" font-size="21" font-weight="700" fill="#000000">3</text>
    <line stroke="#000000" stroke-width="2" x1="0" y1="414" x2="935" y2="414"/>
    <polygon stroke="#000000" stroke-width="1" fill="#000000" points="934.5,408.5 939.5,413.5 939.5,414.5 934.5,419.5 "/>
    <line stroke="#000000" stroke-width="1" x1="118.5" y1="419.5" x2="118.5" y2="408.5"/>
    <line stroke="#000000" stroke-width="1" x1="235.5" y1="419.5" x2="235.5" y2="408.5"/>
    <line stroke="#000000" stroke-width="1" x1="353.5" y1="419.5" x2="353.5" y2="408.5"/>
    <line stroke="#000000" stroke-width="1" x1="588.5" y1="419.5" x2="588.5" y2="408.5"/>
    <line stroke="#000000" stroke-width="1" x1="705.5" y1="419.5" x2="705.5" y2="408.5"/>
    <line stroke="#000000" stroke-width="1" x1="823.5" y1="419.5" x2="823.5" y2="408.5"/>
    <line stroke="#000000" stroke-width="2" x1="470" y1="3" x2="470" y2="496"/>
    <polygon stroke="#000000" stroke-width="1" fill="#000000" points="464.5,5.5 469.5,0.5 470.5,0.5 475.5,5.5 "/>
    <g stroke="none" fill-rule="evenodd" fill="#c0c0c0">
      <rect x="352" y="215" width="2" height="1"/>
      <rect x="351" y="216" width="3" height="2"/>
      <rect x="350" y="218" width="4" height="2"/>
      <rect x="349" y="220" width="5" height="1"/>
      <rect x="348" y="221" width="6" height="2"/>
      <rect x="347" y="223" width="7" height="2"/>
      <rect x="346" y="225" width="8" height="2"/>
      <rect x="345" y="227" width="9" height="1"/>
      <rect x="344" y="228" width="10" height="2"/>
      <rect x="343" y="230" width="11" height="2"/>
      <rect x="342" y="232" width="12" height="1"/>
      <rect x="341" y="233" width="13" height="2"/>
      <rect x="340" y="235" width="14" height="2"/>
      <rect x="339" y="237" width="15" height="1"/>
      <rect x="338" y="238" width="16" height="2"/>
      <rect x="337" y="240" width="17" height="2"/>
      <rect x="336" y="242" width="18" height="1"/>
      <rect x="335" y="243" width="19" height="2"/>
      <rect x="334" y="245" width="20" height="2"/>
      <rect x="333" y="247" width="21" height="1"/>
      <rect x="332" y="248" width="22" height="2"/>
      <rect x="331" y="250" width="23" height="2"/>
      <rect x="330" y="252" width="24" height="1"/>
      <rect x="329" y="253" width="25" height="2"/>
      <rect x="328" y="255" width="26" height="2"/>
      <rect x="327" y="257" width="27" height="1"/>
      <rect x="326" y="258" width="28" height="2"/>
      <rect x="325" y="260" width="29" height="1"/>
      <rect x="324" y="261" width="30" height="2"/>
      <rect x="323" y="263" width="31" height="2"/>
      <rect x="322" y="265" width="32" height="1"/>
      <rect x="321" y="266" width="33" height="2"/>
      <rect x="320" y="268" width="34" height="1"/>
      <rect x="319" y="269" width="35" height="2"/>
      <rect x="318" y="271" width="36" height="2"/>
      <rect x="317" y="273" width="37" height="1"/>
      <rect x="316" y="274" width="38" height="2"/>
      <rect x="315" y="276" width="39" height="1"/>
      <rect x="314" y="277" width="40" height="2"/>
      <rect x="313" y="279" width="41" height="1"/>
      <rect x="312" y="280" width="42" height="2"/>
      <rect x="311" y="282" width="43" height="1"/>
      <rect x="310" y="283" width="44" height="2"/>
      <rect x="309" y="285" width="45" height="1"/>
      <rect x="308" y="286" width="46" height="2"/>
      <rect x="307" y="288" width="47" height="1"/>
      <rect x="306" y="289" width="48" height="2"/>
      <rect x="305" y="291" width="49" height="1"/>
      <rect x="304" y="292" width="50" height="2"/>
      <rect x="303" y="294" width="51" height="1"/>
      <rect x="302" y="295" width="52" height="2"/>
      <rect x="301" y="297" width="53" height="1"/>
      <rect x="300" y="298" width="54" height="2"/>
      <rect x="299" y="300" width="55" height="1"/>
      <rect x="298" y="301" width="56" height="1"/>
      <rect x="297" y="302" width="57" height="2"/>
      <rect x="296" y="304" width="58" height="1"/>
      <rect x="295" y="305" width="59" height="2"/>
      <rect x="294" y="307" width="60" height="1"/>
      <rect x="293" y="308" width="61" height="1"/>
      <rect x="292" y="309" width="62" height="2"/>
      <rect x="291" y="311" width="63" height="1"/>
      <rect x="290" y="312" width="64" height="1"/>
      <rect x="289" y="313" width="65" height="2"/>
      <rect x="288" y="315" width="66" height="1"/>
      <rect x="287" y="316" width="67" height="1"/>
      <rect x="286" y="317" width="68" height="1"/>
      <rect x="285" y="318" width="69" height="2"/>
      <rect x="284" y="320" width="70" height="1"/>
      <rect x="283" y="321" width="71" height="1"/>
      <rect x="282" y="322" width="72" height="2"/>
      <rect x="281" y="324" width="73" height="1"/>
      <rect x="280" y="325" width="74" height="1"/>
      <rect x="279" y="326" width="75" height="1"/>
      <rect x="278" y="327" width="76" height="1"/>
      <rect x="277" y="328" width="77" height="2"/>
      <rect x="276" y="330" width="78" height="1"/>
      <rect x="275" y="331" width="79" height="1"/>
      <rect x="274" y="332" width="80" height="1"/>
      <rect x="273" y="333" width="81" height="1"/>
      <rect x="272" y="334" width="82" height="1"/>
      <rect x="271" y="335" width="83" height="2"/>
      <rect x="270" y="337" width="84" height="1"/>
      <rect x="269" y="338" width="85" height="1"/>
      <rect x="268" y="339" width="86" height="1"/>
      <rect x="267" y="340" width="87" height="1"/>
      <rect x="266" y="341" width="88" height="1"/>
      <rect x="265" y="342" width="89" height="1"/>
      <rect x="264" y="343" width="90" height="1"/>
      <rect x="263" y="344" width="91" height="1"/>
      <rect x="262" y="345" width="92" height="1"/>
      <rect x="261" y="346" width="93" height="1"/>
      <rect x="260" y="347" width="94" height="1"/>
      <rect x="259" y="348" width="95" height="1"/>
      <rect x="258" y="349" width="96" height="1"/>
      <rect x="257" y="350" width="97" height="1"/>
      <rect x="256" y="351" width="98" height="1"/>
      <rect x="255" y="352" width="99" height="1"/>
      <rect x="254" y="353" width="100" height="1"/>
      <rect x="253" y="354" width="101" height="1"/>
      <rect x="252" y="355" width="102" height="1"/>
      <rect x="251" y="356" width="103" height="1"/>
      <rect x="250" y="357" width="104" height="1"/>
      <rect x="249" y="358" width="105" height="1"/>
      <rect x="248" y="359" width="106" height="1"/>
      <rect x="246" y="360" width="108" height="1"/>
      <rect x="245" y="361" width="109" height="1"/>
      <rect x="244" y="362" width="110" height="1"/>
      <rect x="243" y="363" width="111" height="1"/>
      <rect x="242" y="364" width="112" height="1"/>
      <rect x="241" y="365" width="113" height="1"/>
      <rect x="239" y="366" width="115" height="1"/>
      <rect x="238" y="367" width="116" height="1"/>
      <rect x="237" y="368" width="117" height="1"/>
      <rect x="235" y="369" width="119" height="1"/>
      <rect x="234" y="370" width="120" height="1"/>
      <rect x="233" y="371" width="121" height="1"/>
      <rect x="231" y="372" width="123" height="1"/>
      <rect x="230" y="373" width="124" height="1"/>
      <rect x="229" y="374" width="125" height="1"/>
      <rect x="227" y="375" width="127" height="1"/>
      <rect x="226" y="376" width="128" height="1"/>
      <rect x="224" y="377" width="130" height="1"/>
      <rect x="223" y="378" width="131" height="1"/>
      <rect x="221" y="379" width="133" height="1"/>
      <rect x="219" y="380" width="135" height="1"/>
      <rect x="218" y="381" width="136" height="1"/>
      <rect x="216" y="382" width="138" height="1"/>
      <rect x="214" y="383" width="140" height="1"/>
      <rect x="213" y="384" width="141" height="1"/>
      <rect x="211" y="385" width="143" height="1"/>
      <rect x="209" y="386" width="145" height="1"/>
      <rect x="207" y="387" width="147" height="1"/>
      <rect x="205" y="388" width="149" height="1"/>
      <rect x="203" y="389" width="151" height="1"/>
      <rect x="201" y="390" width="153" height="1"/>
      <rect x="198" y="391" width="156" height="1"/>
      <rect x="196" y="392" width="158" height="1"/>
      <rect x="194" y="393" width="160" height="1"/>
      <rect x="191" y="394" width="163" height="1"/>
      <rect x="189" y="395" width="165" height="1"/>
      <rect x="186" y="396" width="168" height="1"/>
      <rect x="183" y="397" width="171" height="1"/>
      <rect x="180" y="398" width="174" height="1"/>
      <rect x="177" y="399" width="177" height="1"/>
      <rect x="174" y="400" width="180" height="1"/>
      <rect x="170" y="401" width="184" height="1"/>
      <rect x="167" y="402" width="187" height="1"/>
      <rect x="163" y="403" width="191" height="1"/>
      <rect x="158" y="404" width="196" height="1"/>
      <rect x="153" y="405" width="201" height="1"/>
      <rect x="148" y="406" width="206" height="1"/>
      <rect x="142" y="407" width="212" height="1"/>
      <rect x="135" y="408" width="219" height="1"/>
      <rect x="128" y="409" width="226" height="1"/>
      <rect x="118" y="410" width="236" height="1"/>
      <rect x="106" y="411" width="248" height="1"/>
      <rect x="88" y="412" width="266" height="1"/>
      <rect x="57" y="413" width="297" height="2"/>
    </g>
    <polyline stroke="#000000" stroke-width="3" fill="none" points="0,414 1,414 2,414 3,414 4,414 5,414 6,414 7,414 8,414 9,414 10,414 11,414 12,414 13,414 14,414 15,414 16,414 17,414 18,414 19,414 20,414 21,414 22,414 23,414 24,414 25,414 26,414 27,414 28,414 29,414 30,414 31,414 32,414 33,414 34,414 35,414 36,414 37,414 38,414 39,414 40,414 41,414 42,414 43,414 44,414 45,414 46,414 47,414 48,414 49,414 50,414 51,414 52,414 53,414 54,414 55,414 56,414 57,413 58,413 59,413 60,413 61,413 62,413 63,413 64,413 65,413 66,413 67,413 68,413 69,413 70,413 71,413 72,413 73,413 74,413 75,413 76,413 77,413 78,413 79,413 80,413 81,413 82,413 83,413 84,413 85,413 86,413 87,413 88,412 89,412 90,412 91,412 92,412 93,412 94,412 95,412 96,412 97,412 98,412 99,412 100,412 101,412 102,412 103,412 104,412 105,412 106,411 107,411 108,411 109,411 110,411 111,411 112,411 113,411 114,411 115,411 116,411 117,411 118,410 119,410 120,410 121,410 122,410 123,410 124,410 125,410 126,410 127,410 128,409 129,409 130,409 131,409 132,409 133,409 134,409 135,408 136,408 137,408 138,408 139,408 140,408 141,408 142,407 143,407 144,407 145,407 146,407 147,407 148,406 149,406 150,406 151,406 152,406 153,405 154,405 155,405 156,405 157,405 158,404 159,404 160,404 161,404 162,404 163,403 164,403 165,403 166,403 167,402 168,402 169,402 170,401 171,401 172,401 173,401 174,400 175,400 176,400 177,399 178,399 179,399 180,398 181,398 182,398 183,397 184,397 185,397 186,396 187,396 188,396 189,395 190,395 191,394 192,394 193,394 194,393 195,393 196,392 197,392 198,391 199,391 200,391 201,390 202,390 203,389 204,389 205,388 206,388 207,387 208,387 209,386 210,386 211,385 212,385 213,384 214,383 215,383 216,382 217,382 218,381 219,380 220,380 221,379 222,379 223,378 224,377 225,377 226,376 227,375 228,375 229,374 230,373 231,372 232,372 233,371 234,370 235,369 236,369 237,368 238,367 239,366 240,366 241,365 242,364 243,363 244,362 245,361 246,360 247,360 248,359 249,358 250,357 251,356 252,355 253,354 254,353 255,352 256,351 257,350 258,349 259,348 260,347 261,346 262,345 263,344 264,343 265,342 266,341 267,340 268,339 269,338 270,337 271,335 272,334 273,333 274,332 275,331 276,330 277,328 278,327 279,326 280,325 281,324 282,322 283,321 284,320 285,318 286,317 287,316 288,315 289,313 290,312 291,311 292,309 293,308 294,307 295,305 296,304 297,302 298,301 299,300 300,298 301,297 302,295 303,294 304,292 305,291 306,289 307,288 308,286 309,285 310,283 311,282 312,280 313,279 314,277 315,276 316,274 317,273 318,271 319,269 320,268 321,266 322,265 323,263 324,261 325,260 326,258 327,257 328,255 329,253 330,252 331,250 332,248 333,247 334,245 335,243 336,242 337,240 338,238 339,237 340,235 341,233 342,232 343,230 344,228 345,227 346,225 347,223 348,221 349,220 350,218 351,216 352,215 353,213 354,211 355,209 356,208 357,206 358,204 359,203 360,201 361,199 362,198 363,196 364,194 365,192 366,191 367,189 368,187 369,186 370,184 371,182 372,181 373,179 374,177 375,176 376,174 377,173 378,171 379,169 380,168 381,166 382,165 383,163 384,161 385,160 386,158 387,157 388,155 389,154 390,152 391,151 392,149 393,148 394,146 395,145 396,143 397,142 398,140 399,139 400,137 401,136 402,135 403,133 404,132 405,131 406,129 407,128 408,127 409,125 410,124 411,123 412,122 413,120 414,119 415,118 416,117 417,116 418,115 419,113 420,112 421,111 422,110 423,109 424,108 425,107 426,106 427,105 428,104 429,103 430,102 431,101 432,101 433,100 434,99 435,98 436,97 437,96 438,96 439,95 440,94 441,94 442,93 443,92 444,92 445,91 446,91 447,90 448,89 449,89 450,88 451,88 452,88 453,87 454,87 455,86 456,86 457,86 458,85 459,85 460,85 461,85 462,84 463,84 464,84 465,84 466,84 467,84 468,84 469,84 470,84 471,84 472,84 473,84 474,84 475,84 476,84 477,84 478,84 479,85 480,85 481,85 482,85 483,86 484,86 485,86 486,87 487,87 488,88 489,88 490,88 491,89 492,89 493,90 494,91 495,91 496,92 497,92 498,93 499,94 500,94 501,95 502,96 503,96 504,97 505,98 506,99 507,100 508,101 509,101 510,102 511,103 512,104 513,105 514,106 515,107 516,108 517,109 518,110 519,111 520,112 521,113 522,115 523,116 524,117 525,118 526,119 527,120 528,122 529,123 530,124 531,125 532,127 533,128 534,129 535,131 536,132 537,133 538,135 539,136 540,137 541,139 542,140 543,142 544,143 545,145 546,146 547,148 548,149 549,151 550,152 551,154 552,155 553,157 554,158 555,160 556,161 557,163 558,165 559,166 560,168 561,169 562,171 563,173 564,174 565,176 566,177 567,179 568,181 569,182 570,184 571,186 572,187 573,189 574,191 575,192 576,194 577,196 578,198 579,199 580,201 581,203 582,204 583,206 584,208 585,209 586,211 587,213 588,215 589,216 590,218 591,220 592,221 593,223 594,225 595,227 596,228 597,230 598,232 599,233 600,235 601,237 602,238 603,240 604,242 605,243 606,245 607,247 608,248 609,250 610,252 611,253 612,255 613,257 614,258 615,260 616,261 617,263 618,265 619,266 620,268 621,269 622,271 623,273 624,274 625,276 626,277 627,279 628,280 629,282 630,283 631,285 632,286 633,288 634,289 635,291 636,292 637,294 638,295 639,297 640,298 641,300 642,301 643,302 644,304 645,305 646,307 647,308 648,309 649,311 650,312 651,313 652,315 653,316 654,317 655,318 656,320 657,321 658,322 659,324 660,325 661,326 662,327 663,328 664,330 665,331 666,332 667,333 668,334 669,335 670,337 671,338 672,339 673,340 674,341 675,342 676,343 677,344 678,345 679,346 680,347 681,348 682,349 683,350 684,351 685,352 686,353 687,354 688,355 689,356 690,357 691,358 692,359 693,360 694,360 695,361 696,362 697,363 698,364 699,365 700,366 701,366 702,367 703,368 704,369 705,369 706,370 707,371 708,372 709,372 710,373 711,374 712,375 713,375 714,376 715,377 716,377 717,378 718,379 719,379 720,380 721,380 722,381 723,382 724,382 725,383 726,383 727,384 728,385 729,385 730,386 731,386 732,387 733,387 734,388 735,388 736,389 737,389 738,390 739,390 740,391 741,391 742,391 743,392 744,392 745,393 746,393 747,394 748,394 749,394 750,395 751,395 752,396 753,396 754,396 755,397 756,397 757,397 758,398 759,398 760,398 761,399 762,399 763,399 764,400 765,400 766,400 767,401 768,401 769,401 770,401 771,402 772,402 773,402 774,403 775,403 776,403 777,403 778,404 779,404 780,404 781,404 782,404 783,405 784,405 785,405 786,405 787,405 788,406 789,406 790,406 791,406 792,406 793,407 794,407 795,407 796,407 797,407 798,407 799,408 800,408 801,408 802,408 803,408 804,408 805,408 806,409 807,409 808,409 809,409 810,409 811,409 812,409 813,410 814,410 815,410 816,410 817,410 818,410 819,410 820,410 821,410 822,410 823,411 824,411 825,411 826,411 827,411 828,411 829,411 830,411 831,411 832,411 833,411 834,411 835,412 836,412 837,412 838,412 839,412 840,412 841,412 842,412 843,412 844,412 845,412 846,412 847,412 848,412 849,412 850,412 851,412 852,412 853,413 854,413 855,413 856,413 857,413 858,413 859,413 860,413 861,413 862,413 863,413 864,413 865,413 866,413 867,413 868,413 869,413 870,413 871,413 872,413 873,413 874,413 875,413 876,413 877,413 878,413 879,413 880,413 881,413 882,413 883,413 884,414 885,414 886,414 887,414 888,414 889,414 890,414 891,414 892,414 893,414 894,414 895,414 896,414 897,414 898,414 899,414 900,414 901,414 902,414 903,414 904,414 905,414 906,414 907,414 908,414 909,414 910,414 911,414 912,414 913,414 914,414 915,414 916,414 917,414 918,414 919,414 920,414 921,414 922,414 923,414 924,414 925,414 926,414 927,414 928,414 929,414 930,414 931,414 932,414 933,414 934,414 935,414 936,414 937,414 938,414 939,414 940,414 "/>
    <g stroke="none" fill-rule="evenodd" fill="#c0c0c0">
      <rect x="588" y="216" width="2" height="1"/>
      <rect x="588" y="217" width="3" height="2"/>
      <rect x="588" y="219" width="4" height="2"/>
      <rect x="588" y="221" width="5" height="1"/>
      <rect x="588" y="222" width="6" height="2"/>
      <rect x="588" y="224" width="7" height="2"/>
      <rect x="588" y="226" width="8" height="2"/>
      <rect x="588" y="228" width="9" height="1"/>
      <rect x="588" y="229" width="10" height="2"/>
      <rect x="588" y="231" width="11" height="2"/>
      <rect x="588" y="233" width="12" height="1"/>
      <rect x="588" y="234" width="13" height="2"/>
      <rect x="588" y="236" width="14" height="2"/>
      <rect x="588" y="238" width="15" height="1"/>
      <rect x="588" y="239" width="16" height="2"/>
      <rect x="588" y="241" width="17" height="2"/>
      <rect x="588" y="243" width="18" height="1"/>
      <rect x="588" y="244" width="19" height="2"/>
      <rect x="588" y="246" width="20" height="2"/>
      <rect x="588" y="248" width="21" height="1"/>
      <rect x="588" y="249" width="22" height="2"/>
      <rect x="588" y="251" width="23" height="2"/>
      <rect x="588" y="253" width="24" height="1"/>
      <rect x="588" y="254" width="25" height="2"/>
      <rect x="588" y="256" width="26" height="2"/>
      <rect x="588" y="258" width="27" height="1"/>
      <rect x="588" y="259" width="28" height="2"/>
      <rect x="588" y="261" width="29" height="1"/>
      <rect x="588" y="262" width="30" height="2"/>
      <rect x="588" y="264" width="31" height="2"/>
      <rect x="588" y="266" width="32" height="1"/>
      <rect x="588" y="267" width="33" height="2"/>
      <rect x="588" y="269" width="34" height="1"/>
      <rect x="588" y="270" width="35" height="2"/>
      <rect x="588" y="272" width="36" height="2"/>
      <rect x="588" y="274" width="37" height="1"/>
      <rect x="588" y="275" width="38" height="2"/>
      <rect x="588" y="277" width="39" height="1"/>
      <rect x="588" y="278" width="40" height="2"/>
      <rect x="588" y="280" width="41" height="1"/>
      <rect x="588" y="281" width="42" height="2"/>
      <rect x="588" y="283" width="43" height="1"/>
      <rect x="588" y="284" width="44" height="2"/>
      <rect x="588" y="286" width="45" height="1"/>
      <rect x="588" y="287" width="46" height="2"/>
      <rect x="588" y="289" width="47" height="1"/>
      <rect x="588" y="290" width="48" height="2"/>
      <rect x="588" y="292" width="49" height="1"/>
      <rect x="588" y="293" width="50" height="2"/>
      <rect x="588" y="295" width="51" height="1"/>
      <rect x="588" y="296" width="52" height="2"/>
      <rect x="588" y="298" width="53" height="1"/>
      <rect x="588" y="299" width="54" height="2"/>
      <rect x="588" y="301" width="55" height="1"/>
      <rect x="588" y="302" width="56" height="1"/>
      <rect x="588" y="303" width="57" height="2"/>
      <rect x="588" y="305" width="58" height="1"/>
      <rect x="588" y="306" width="59" height="2"/>
      <rect x="588" y="308" width="60" height="1"/>
      <rect x="588" y="309" width="61" height="1"/>
      <rect x="588" y="310" width="62" height="2"/>
      <rect x="588" y="312" width="63" height="1"/>
      <rect x="588" y="313" width="64" height="1"/>
      <rect x="588" y="314" width="65" height="2"/>
      <rect x="588" y="316" width="66" height="1"/>
      <rect x="588" y="317" width="67" height="1"/>
      <rect x="588" y="318" width="68" height="1"/>
      <rect x="588" y="319" width="69" height="2"/>
      <rect x="588" y="321" width="70" height="1"/>
      <rect x="588" y="322" width="71" height="1"/>
      <rect x="588" y="323" width="72" height="2"/>
      <rect x="588" y="325" width="73" height="1"/>
      <rect x="588" y="326" width="74" height="1"/>
      <rect x="588" y="327" width="75" height="1"/>
      <rect x="588" y="328" width="76" height="1"/>
      <rect x="588" y="329" width="77" height="2"/>
      <rect x="588" y="331" width="78" height="1"/>
      <rect x="588" y="332" width="79" height="1"/>
      <rect x="588" y="333" width="80" height="1"/>
      <rect x="588" y="334" width="81" height="1"/>
      <rect x="588" y="335" width="82" height="1"/>
      <rect x="588" y="336" width="83" height="2"/>
      <rect x="588" y="338" width="84" height="1"/>
      <rect x="588" y="339" width="85" height="1"/>
      <rect x="588" y="340" width="86" height="1"/>
      <rect x="588" y="341" width="87" height="1"/>
      <rect x="588" y="342" width="88" height="1"/>
      <rect x="588" y="343" width="89" height="1"/>
      <rect x="588" y="344" width="90" height="1"/>
      <rect x="588" y="345" width="91" height="1"/>
      <rect x="588" y="346" width="92" height="1"/>
      <rect x="588" y="347" width="93" height="1"/>
      <rect x="588" y="348" width="94" height="1"/>
      <rect x="588" y="349" width="95" height="1"/>
      <rect x="588" y="350" width="96" height="1"/>
      <rect x="588" y="351" width="97" height="1"/>
      <rect x="588" y="352" width="98" height="1"/>
      <rect x="588" y="353" width="99" height="1"/>
      <rect x="588" y="354" width="100" height="1"/>
      <rect x="588" y="355" width="101" height="1"/>
      <rect x="588" y="356" width="102" height="1"/>
      <rect x="588" y="357" width="103" height="1"/>
      <rect x="588" y="358" width="104" height="1"/>
      <rect x="588" y="359" width="105" height="1"/>
      <rect x="588" y="360" width="107" height="1"/>
      <rect x="588" y="361" width="108" height="1"/>
      <rect x="588" y="362" width="109" height="1"/>
      <rect x="588" y="363" width="110" height="1"/>
      <rect x="588" y="364" width="111" height="1"/>
      <rect x="588" y="365" width="112" height="1"/>
      <rect x="588" y="366" width="114" height="1"/>
      <rect x="588" y="367" width="115" height="1"/>
      <rect x="588" y="368" width="116" height="1"/>
      <rect x="588" y="369" width="118" height="1"/>
      <rect x="588" y="370" width="119" height="1"/>
      <rect x="588" y="371" width="120" height="1"/>
      <rect x="588" y="372" width="122" height="1"/>
      <rect x="588" y="373" width="123" height="1"/>
      <rect x="588" y="374" width="124" height="1"/>
      <rect x="588" y="375" width="126" height="1"/>
      <rect x="588" y="376" width="127" height="1"/>
      <rect x="588" y="377" width="129" height="1"/>
      <rect x="588" y="378" width="130" height="1"/>
      <rect x="588" y="379" width="132" height="1"/>
      <rect x="588" y="380" width="134" height="1"/>
      <rect x="588" y="381" width="135" height="1"/>
      <rect x="588" y="382" width="137" height="1"/>
      <rect x="588" y="383" width="139" height="1"/>
      <rect x="588" y="384" width="140" height="1"/>
      <rect x="588" y="385" width="142" height="1"/>
      <rect x="588" y="386" width="144" height="1"/>
      <rect x="588" y="387" width="146" height="1"/>
      <rect x="588" y="388" width="148" height="1"/>
      <rect x="588" y="389" width="150" height="1"/>
      <rect x="588" y="390" width="152" height="1"/>
      <rect x="588" y="391" width="155" height="1"/>
      <rect x="588" y="392" width="157" height="1"/>
      <rect x="588" y="393" width="159" height="1"/>
      <rect x="588" y="394" width="162" height="1"/>
      <rect x="588" y="395" width="164" height="1"/>
      <rect x="588" y="396" width="167" height="1"/>
      <rect x="588" y="397" width="170" height="1"/>
      <rect x="588" y="398" width="173" height="1"/>
      <rect x="588" y="399" width="176" height="1"/>
      <rect x="588" y="400" width="179" height="1"/>
      <rect x="588" y="401" width="183" height="1"/>
      <rect x="588" y="402" width="186" height="1"/>
      <rect x="588" y="403" width="190" height="1"/>
      <rect x="588" y="404" width="195" height="1"/>
      <rect x="588" y="405" width="200" height="1"/>
      <rect x="588" y="406" width="205" height="1"/>
      <rect x="588" y="407" width="211" height="1"/>
      <rect x="588" y="408" width="218" height="1"/>
      <rect x="588" y="409" width="225" height="1"/>
      <rect x="588" y="410" width="235" height="1"/>
      <rect x="588" y="411" width="247" height="1"/>
      <rect x="588" y="412" width="265" height="1"/>
      <rect x="588" y="413" width="296" height="2"/>
    </g>
    <polyline stroke="#000000" stroke-width="3" fill="none" points="0,414 1,414 2,414 3,414 4,414 5,414 6,414 7,414 8,414 9,414 10,414 11,414 12,414 13,414 14,414 15,414 16,414 17,414 18,414 19,414 20,414 21,414 22,414 23,414 24,414 25,414 26,414 27,414 28,414 29,414 30,414 31,414 32,414 33,414 34,414 35,414 36,414 37,414 38,414 39,414 40,414 41,414 42,414 43,414 44,414 45,414 46,414 47,414 48,414 49,414 50,414 51,414 52,414 53,414 54,414 55,414 56,414 57,413 58,413 59,413 60,413 61,413 62,413 63,413 64,413 65,413 66,413 67,413 68,413 69,413 70,413 71,413 72,413 73,413 74,413 75,413 76,413 77,413 78,413 79,413 80,413 81,413 82,413 83,413 84,413 85,413 86,413 87,413 88,412 89,412 90,412 91,412 92,412 93,412 94,412 95,412 96,412 97,412 98,412 99,412 100,412 101,412 102,412 103,412 104,412 105,412 106,411 107,411 108,411 109,411 110,411 111,411 112,411 113,411 114,411 115,411 116,411 117,411 118,410 119,410 120,410 121,410 122,410 123,410 124,410 125,410 126,410 127,410 128,409 129,409 130,409 131,409 132,409 133,409 134,409 135,408 136,408 137,408 138,408 139,408 140,408 141,408 142,407 143,407 144,407 145,407 146,407 147,407 148,406 149,406 150,406 151,406 152,406 153,405 154,405 155,405 156,405 157,405 158,404 159,404 160,404 161,404 162,404 163,403 164,403 165,403 166,403 167,402 168,402 169,402 170,401 171,401 172,401 173,401 174,400 175,400 176,400 177,399 178,399 179,399 180,398 181,398 182,398 183,397 184,397 185,397 186,396 187,396 188,396 189,395 190,395 191,394 192,394 193,394 194,393 195,393 196,392 197,392 198,391 199,391 200,391 201,390 202,390 203,389 204,389 205,388 206,388 207,387 208,387 209,386 210,386 211,385 212,385 213,384 214,383 215,383 216,382 217,382 218,381 219,380 220,380 221,379 222,379 223,378 224,377 225,377 226,376 227,375 228,375 229,374 230,373 231,372 232,372 233,371 234,370 235,369 236,369 237,368 238,367 239,366 240,366 241,365 242,364 243,363 244,362 245,361 246,360 247,360 248,359 249,358 250,357 251,356 252,355 253,354 254,353 255,352 256,351 257,350 258,349 259,348 260,347 261,346 262,345 263,344 264,343 265,342 266,341 267,340 268,339 269,338 270,337 271,335 272,334 273,333 274,332 275,331 276,330 277,328 278,327 279,326 280,325 281,324 282,322 283,321 284,320 285,318 286,317 287,316 288,315 289,313 290,312 291,311 292,309 293,308 294,307 295,305 296,304 297,302 298,301 299,300 300,298 301,297 302,295 303,294 304,292 305,291 306,289 307,288 308,286 309,285 310,283 311,282 312,280 313,279 314,277 315,276 316,274 317,273 318,271 319,269 320,268 321,266 322,265 323,263 324,261 325,260 326,258 327,257 328,255 329,253 330,252 331,250 332,248 333,247 334,245 335,243 336,242 337,240 338,238 339,237 340,235 341,233 342,232 343,230 344,228 345,227 346,225 347,223 348,221 349,220 350,218 351,216 352,215 353,213 354,211 355,209 356,208 357,206 358,204 359,203 360,201 361,199 362,198 363,196 364,194 365,192 366,191 367,189 368,187 369,186 370,184 371,182 372,181 373,179 374,177 375,176 376,174 377,173 378,171 379,169 380,168 381,166 382,165 383,163 384,161 385,160 386,158 387,157 388,155 389,154 390,152 391,151 392,149 393,148 394,146 395,145 396,143 397,142 398,140 399,139 400,137 401,136 402,135 403,133 404,132 405,131 406,129 407,128 408,127 409,125 410,124 411,123 412,122 413,120 414,119 415,118 416,117 417,116 418,115 419,113 420,112 421,111 422,110 423,109 424,108 425,107 426,106 427,105 428,104 429,103 430,102 431,101 432,101 433,100 434,99 435,98 436,97 437,96 438,96 439,95 440,94 441,94 442,93 443,92 444,92 445,91 446,91 447,90 448,89 449,89 450,88 451,88 452,88 453,87 454,87 455,86 456,86 457,86 458,85 459,85 460,85 461,85 462,84 463,84 464,84 465,84 466,84 467,84 468,84 469,84 470,84 471,84 472,84 473,84 474,84 475,84 476,84 477,84 478,84 479,85 480,85 481,85 482,85 483,86 484,86 485,86 486,87 487,87 488,88 489,88 490,88 491,89 492,89 493,90 494,91 495,91 496,92 497,92 498,93 499,94 500,94 501,95 502,96 503,96 504,97 505,98 506,99 507,100 508,101 509,101 510,102 511,103 512,104 513,105 514,106 515,107 516,108 517,109 518,110 519,111 520,112 521,113 522,115 523,116 524,117 525,118 526,119 527,120 528,122 529,123 530,124 531,125 532,127 533,128 534,129 535,131 536,132 537,133 538,135 539,136 540,137 541,139 542,140 543,142 544,143 545,145 546,146 547,148 548,149 549,151 550,152 551,154 552,155 553,157 554,158 555,160 556,161 557,163 558,165 559,166 560,168 561,169 562,171 563,173 564,174 565,176 566,177 567,179 568,181 569,182 570,184 571,186 572,187 573,189 574,191 575,192 576,194 577,196 578,198 579,199 580,201 581,203 582,204 583,206 584,208 585,209 586,211 587,213 588,215 589,216 590,218 591,220 592,221 593,223 594,225 595,227 596,228 597,230 598,232 599,233 600,235 601,237 602,238 603,240 604,242 605,243 606,245 607,247 608,248 609,250 610,252 611,253 612,255 613,257 614,258 615,260 616,261 617,263 618,265 619,266 620,268 621,269 622,271 623,273 624,274 625,276 626,277 627,279 628,280 629,282 630,283 631,285 632,286 633,288 634,289 635,291 636,292 637,294 638,295 639,297 640,298 641,300 642,301 643,302 644,304 645,305 646,307 647,308 648,309 649,311 650,312 651,313 652,315 653,316 654,317 655,318 656,320 657,321 658,322 659,324 660,325 661,326 662,327 663,328 664,330 665,331 666,332 667,333 668,334 669,335 670,337 671,338 672,339 673,340 674,341 675,342 676,343 677,344 678,345 679,346 680,347 681,348 682,349 683,350 684,351 685,352 686,353 687,354 688,355 689,356 690,357 691,358 692,359 693,360 694,360 695,361 696,362 697,363 698,364 699,365 700,366 701,366 702,367 703,368 704,369 705,369 706,370 707,371 708,372 709,372 710,373 711,374 712,375 713,375 714,376 715,377 716,377 717,378 718,379 719,379 720,380 721,380 722,381 723,382 724,382 725,383 726,383 727,384 728,385 729,385 730,386 731,386 732,387 733,387 734,388 735,388 736,389 737,389 738,390 739,390 740,391 741,391 742,391 743,392 744,392 745,393 746,393 747,394 748,394 749,394 750,395 751,395 752,396 753,396 754,396 755,397 756,397 757,397 758,398 759,398 760,398 761,399 762,399 763,399 764,400 765,400 766,400 767,401 768,401 769,401 770,401 771,402 772,402 773,402 774,403 775,403 776,403 777,403 778,404 779,404 780,404 781,404 782,404 783,405 784,405 785,405 786,405 787,405 788,406 789,406 790,406 791,406 792,406 793,407 794,407 795,407 796,407 797,407 798,407 799,408 800,408 801,408 802,408 803,408 804,408 805,408 806,409 807,409 808,409 809,409 810,409 811,409 812,409 813,410 814,410 815,410 816,410 817,410 818,410 819,410 820,410 821,410 822,410 823,411 824,411 825,411 826,411 827,411 828,411 829,411 830,411 831,411 832,411 833,411 834,411 835,412 836,412 837,412 838,412 839,412 840,412 841,412 842,412 843,412 844,412 845,412 846,412 847,412 848,412 849,412 850,412 851,412 852,412 853,413 854,413 855,413 856,413 857,413 858,413 859,413 860,413 861,413 862,413 863,413 864,413 865,413 866,413 867,413 868,413 869,413 870,413 871,413 872,413 873,413 874,413 875,413 876,413 877,413 878,413 879,413 880,413 881,413 882,413 883,413 884,414 885,414 886,414 887,414 888,414 889,414 890,414 891,414 892,414 893,414 894,414 895,414 896,414 897,414 898,414 899,414 900,414 901,414 902,414 903,414 904,414 905,414 906,414 907,414 908,414 909,414 910,414 911,414 912,414 913,414 914,414 915,414 916,414 917,414 918,414 919,414 920,414 921,414 922,414 923,414 924,414 925,414 926,414 927,414 928,414 929,414 930,414 931,414 932,414 933,414 934,414 935,414 936,414 937,414 938,414 939,414 940,414 "/>
    <polyline stroke="#000000" stroke-width="3" fill="none" points="0,414 1,414 2,414 3,414 4,414 5,414 6,414 7,414 8,414 9,414 10,414 11,414 12,414 13,414 14,414 15,414 16,414 17,414 18,414 19,414 20,414 21,414 22,414 23,414 24,414 25,414 26,414 27,414 28,414 29,414 30,414 31,414 32,414 33,414 34,414 35,414 36,414 37,414 38,414 39,414 40,414 41,414 42,414 43,414 44,414 45,414 46,414 47,414 48,414 49,414 50,414 51,414 52,414 53,414 54,414 55,414 56,414 57,414 58,414 59,414 60,414 61,414 62,414 63,414 64,414 65,414 66,414 67,414 68,414 69,414 70,414 71,414 72,414 73,414 74,414 75,414 76,414 77,414 78,414 79,414 80,414 81,414 82,414 83,414 84,414 85,414 86,414 87,414 88,414 89,414 90,414 91,414 92,414 93,414 94,414 95,414 96,414 97,414 98,414 99,414 100,414 101,414 102,414 103,414 104,414 105,414 106,414 107,414 108,414 109,414 110,414 111,414 112,414 113,414 114,414 115,414 116,414 117,414 118,414 119,414 120,414 121,414 122,414 123,414 124,414 125,414 126,414 127,414 128,414 129,414 130,414 131,414 132,414 133,414 134,414 135,414 136,414 137,414 138,414 139,414 140,414 141,414 142,414 143,414 144,414 145,414 146,414 147,414 148,414 149,414 150,414 151,414 152,414 153,414 154,414 155,414 156,414 157,414 158,414 159,414 160,414 161,414 162,414 163,414 164,414 165,414 166,414 167,414 168,414 169,414 170,414 171,414 172,414 173,414 174,414 175,414 176,414 177,414 178,414 179,414 180,414 181,414 182,414 183,414 184,414 185,414 186,414 187,414 188,414 189,414 190,414 191,414 192,414 193,414 194,414 195,414 196,414 197,414 198,414 199,414 200,414 201,414 202,414 203,414 204,414 205,414 206,414 207,414 208,414 209,414 210,414 211,414 212,414 213,414 214,414 215,414 216,414 217,414 218,414 219,414 220,414 221,414 222,414 223,414 224,414 225,414 226,414 227,414 228,414 229,414 230,414 231,414 232,414 233,414 234,414 235,414 236,414 237,414 238,414 239,414 240,414 241,414 242,414 243,414 244,414 245,414 246,414 247,414 248,414 249,414 250,414 251,414 252,414 253,414 254,414 255,414 256,414 257,414 258,414 259,414 260,414 261,414 262,414 263,414 264,414 265,414 266,414 267,414 268,414 269,414 270,414 271,414 272,414 273,414 274,414 275,414 276,414 277,414 278,414 279,414 280,414 281,414 282,414 283,414 284,414 285,414 286,414 287,414 288,414 289,414 290,414 291,414 292,414 293,414 294,414 295,414 296,414 297,414 298,414 299,414 300,414 301,414 302,414 303,414 304,414 305,414 306,414 307,414 308,414 309,414 310,414 311,414 312,414 313,414 314,414 315,414 316,414 317,414 318,414 319,414 320,414 321,414 322,414 323,414 324,414 325,414 326,414 327,414 328,414 329,414 330,414 331,414 332,414 333,414 334,414 335,414 336,414 337,414 338,414 339,414 340,414 341,414 342,414 343,414 344,414 345,414 346,414 347,414 348,414 349,414 350,414 351,414 352,414 353,414 354,414 355,414 356,414 357,414 358,414 359,414 360,414 361,414 362,414 363,414 364,414 365,414 366,414 367,414 368,414 369,414 370,414 371,414 372,414 373,414 374,414 375,414 376,414 377,414 378,414 379,414 380,414 381,414 382,414 383,414 384,414 385,414 386,414 387,414 388,414 389,414 390,414 391,414 392,414 393,414 394,414 395,414 396,414 397,414 398,414 399,414 400,414 401,414 402,414 403,414 404,414 405,414 406,414 407,414 408,414 409,414 410,414 411,414 412,414 413,414 414,414 415,414 416,414 417,414 418,414 419,414 420,414 421,414 422,414 423,414 424,414 425,414 426,414 427,414 428,414 429,414 430,414 431,414 432,414 433,414 434,414 435,414 436,414 437,414 438,414 439,414 440,414 441,414 442,414 443,414 444,414 445,414 446,414 447,414 448,414 449,414 450,414 451,414 452,414 453,414 454,414 455,414 456,414 457,414 458,414 459,414 460,414 461,414 462,414 463,414 464,414 465,414 466,414 467,414 468,414 469,414 470,414 471,414 472,414 473,414 474,414 475,414 476,414 477,414 478,414 479,414 480,414 481,414 482,414 483,414 484,414 485,414 486,414 487,414 488,414 489,414 490,414 491,414 492,414 493,414 494,414 495,414 496,414 497,414 498,414 499,414 500,414 501,414 502,414 503,414 504,414 505,414 506,414 507,414 508,414 509,414 510,414 511,414 512,414 513,414 514,414 515,414 516,414 517,414 518,414 519,414 520,414 521,414 522,414 523,414 524,414 525,414 526,414 527,414 528,414 529,414 530,414 531,414 532,414 533,414 534,414 535,414 536,414 537,414 538,414 539,414 540,414 541,414 542,414 543,414 544,414 545,414 546,414 547,414 548,414 549,414 550,414 551,414 552,414 553,414 554,414 555,414 556,414 557,414 558,414 559,414 560,414 561,414 562,414 563,414 564,414 565,414 566,414 567,414 568,414 569,414 570,414 571,414 572,414 573,414 574,414 575,414 576,414 577,414 578,414 579,414 580,414 581,414 582,414 583,414 584,414 585,414 586,414 587,414 588,414 589,414 590,414 591,414 592,414 593,414 594,414 595,414 596,414 597,414 598,414 599,414 600,414 601,414 602,414 603,414 604,414 605,414 606,414 607,414 608,414 609,414 610,414 611,414 612,414 613,414 614,414 615,414 616,414 617,414 618,414 619,414 620,414 621,414 622,414 623,414 624,414 625,414 626,414 627,414 628,414 629,414 630,414 631,414 632,414 633,414 634,414 635,414 636,414 637,414 638,414 639,414 640,414 641,414 642,414 643,414 644,414 645,414 646,414 647,414 648,414 649,414 650,414 651,414 652,414 653,414 654,414 655,414 656,414 657,414 658,414 659,414 660,414 661,414 662,414 663,414 664,414 665,414 666,414 667,414 668,414 669,414 670,414 671,414 672,414 673,414 674,414 675,414 676,414 677,414 678,414 679,414 680,414 681,414 682,414 683,414 684,414 685,414 686,414 687,414 688,414 689,414 690,414 691,414 692,414 693,414 694,414 695,414 696,414 697,414 698,414 699,414 700,414 701,414 702,414 703,414 704,414 705,414 706,414 707,414 708,414 709,414 710,414 711,414 712,414 713,414 714,414 715,414 716,414 717,414 718,414 719,414 720,414 721,414 722,414 723,414 724,414 725,414 726,414 727,414 728,414 729,414 730,414 731,414 732,414 733,414 734,414 735,414 736,414 737,414 738,414 739,414 740,414 741,414 742,414 743,414 744,414 745,414 746,414 747,414 748,414 749,414 750,414 751,414 752,414 753,414 754,414 755,414 756,414 757,414 758,414 759,414 760,414 761,414 762,414 763,414 764,414 765,414 766,414 767,414 768,414 769,414 770,414 771,414 772,414 773,414 774,414 775,414 776,414 777,414 778,414 779,414 780,414 781,414 782,414 783,414 784,414 785,414 786,414 787,414 788,414 789,414 790,414 791,414 792,414 793,414 794,414 795,414 796,414 797,414 798,414 799,414 800,414 801,414 802,414 803,414 804,414 805,414 806,414 807,414 808,414 809,414 810,414 811,414 812,414 813,414 814,414 815,414 816,414 817,414 818,414 819,414 820,414 821,414 822,414 823,414 824,414 825,414 826,414 827,414 828,414 829,414 830,414 831,414 832,414 833,414 834,414 835,414 836,414 837,414 838,414 839,414 840,414 841,414 842,414 843,414 844,414 845,414 846,414 847,414 848,414 849,414 850,414 851,414 852,414 853,414 854,414 855,414 856,414 857,414 858,414 859,414 860,414 861,414 862,414 863,414 864,414 865,414 866,414 867,414 868,414 869,414 870,414 871,414 872,414 873,414 874,414 875,414 876,414 877,414 878,414 879,414 880,414 881,414 882,414 883,414 884,414 885,414 886,414 887,414 888,414 889,414 890,414 891,414 892,414 893,414 894,414 895,414 896,414 897,414 898,414 899,414 900,414 901,414 902,414 903,414 904,414 905,414 906,414 907,414 908,414 909,414 910,414 911,414 912,414 913,414 914,414 915,414 916,414 917,414 918,414 919,414 920,414 921,414 922,414 923,414 924,414 925,414 926,414 927,414 928,414 929,414 930,414 931,414 932,414 933,414 934,414 935,414 936,414 937,414 938,414 939,414 940,414 "/>
  </g>
  <metadata>
    <rdf:RDF>
      <cc:Work>
        <dc:format>image/svg+xml</dc:format>
        <dc:type rdf:resource="http://purl.org/dc/dcmitype/StillImage"/>
        <cc:license rdf:resource="http://creativecommons.org/licenses/publicdomain/"/>
        <dc:publisher>
          <cc:Agent rdf:about="http://openclipart.org/">
            <dc:title>Open Clip Art Library</dc:title>
          </cc:Agent>
        </dc:publisher>
        <dc:title>Normal distn shaded outside 1s</dc:title>
        <dc:date>2012-07-05T17:04:31</dc:date>
        <dc:description>Standard Normal distribution with shading left tail to -1 and right tail to 1</dc:description>
        <dc:source>http://openclipart.org/detail/171055/normal-distn-shaded-outside-1s-by-oderwald-171055</dc:source>
        <dc:creator>
          <cc:Agent>
            <dc:title>oderwald</dc:title>
          </cc:Agent>
        </dc:creator>
        <dc:subject>
          <rdf:Bag>
            <rdf:li>clip art</rdf:li>
            <rdf:li>clipart</rdf:li>
            <rdf:li>distribution</rdf:li>
            <rdf:li>normal</rdf:li>
            <rdf:li>statistics</rdf:li>
          </rdf:Bag>
        </dc:subject>
      </cc:Work>
      <cc:License rdf:about="http://creativecommons.org/licenses/publicdomain/">
        <cc:permits rdf:resource="http://creativecommons.org/ns#Reproduction"/>
        <cc:permits rdf:resource="http://creativecommons.org/ns#Distribution"/>
        <cc:permits rdf:resource="http://creativecommons.org/ns#DerivativeWorks"/>
      </cc:License>
    </rdf:RDF>
  </metadata>
</svg>
